<svg width="1201" height="1201" fill="none" xmlns="http://www.w3.org/2000/svg"><path fill="#191919" d="M.5.5h1200v1200H.5z"/><path fill-rule="evenodd" clip-rule="evenodd" d="M541.945 1094.71c-13.331-15.58-26.846-31.01-42.331-45.51-6.583-6.17-13.317-12.1-20.108-17.91a305.47 305.47 0 01-11.334-4.86c5.5 7.51 9.768 16.42 12.501 26.67 2.491-1.21 5.422-.09 6.805 2.72 1.509 3.07.613 6.99-2 8.76-2.613 1.77-5.96.72-7.468-2.34-1.508-3.07-.612-6.99 2.001-8.76.194-.13.392-.25.593-.35-4.774-12.22-11.631-23.18-21.693-30.95-.179-.13-.36-.27-.541-.41a298.238 298.238 0 01-7.703-3.97c3.231 5.24 5.932 10.92 8.205 16.48.033-.02.067-.05.101-.07 1.742-1.18 3.973-.48 4.978 1.56 1.007 2.05.408 4.66-1.333 5.84-1.742 1.18-3.972.48-4.979-1.56-.981-2-.436-4.54 1.21-5.75-4.443-7.54-9.391-14.79-15.63-20.6-1.573-.9-3.141-1.81-4.704-2.73-3.049 1.02-6.272 1.71-9.451 2.35-8.964 1.8-18.217 2.88-27.267 1.95a47.55 47.55 0 01-.687 3.44c9.678 11.24 16.518 25.72 18.408 41.71 2.927 24.76 8.566 48.72 19.082 71.28-20.768-5.42-40.84-14.57-57.106-29.93-6.321-5.98-11.641-13.33-16.427-21.09-5.408-8.76-9.931-18.36-13.18-28.47-6.338-2.96-12.84-5.43-18.371-9.46-2.4-1.74-4.687-3.81-6.672-6.19-1.404 7.47-3.602 14.8-6.67 21.79-6.692 15.25-16.243 28.63-26.988 40.2-.414-20.77-4.219-40.67-11.242-59.9-2.658-7.35-3.868-15.25-3.801-23.18a50.784 50.784 0 01-4.333-3.68c-3.142-2.99-5.672-6.67-7.171-11.38-5.941-18.639-5.137-41.352 1.184-57.512a38.91 38.91 0 011.879-4.088c-2.33-1.334-4.487-3.101-6.045-5.497-3.672-5.649-5.132-13.288-5.865-20.188-.646-6.089-.151-12.242-.635-18.476-.764-9.849-3.512-19.404-7.657-28.099 11.086-1.769 20.654-11.263 30.109-17.643 4.228-2.853 8.864-5.076 13.889-5.189.141-.002.282-.002.422-.002.528.004 1.053.029 1.575.077a376.988 376.988 0 01-4.724-10.909c-3.397 2.126-6.867 3.798-10.738 3.358a15.829 15.829 0 01-2.805-.593c-1.362-.414-2.724-1.036-3.951-.42-1.998 1.005-2.792 3.694-3.582 5.761-2.383 6.283-5.055 12.758-10.144 16.3-1.911 1.328-4.024 2.229-6.199 2.796l-.106.027c-.67-9.286-.151-18.992 2.698-27.079-11.277 2.513-23.482 2.04-35.326.273a142.652 142.652 0 01-16.566-3.224c-10.04-2.427-19.867-5.891-28.838-11.693-1.577-1.02-2.998-2.305-4.301-3.769-9.155-5.698-17.821-12.561-25.582-20.498 0 0-.591-.279-.323-.935 1.457-3.493 3.515-6.523 5.946-9.211-5.763-1.537-11.631-2.484-17.581-2.692l-.568-.017c5.098-6.511 10.704-12.626 16.867-17.504-2.317-2.844-4.53-5.816-6.574-8.988-1.323-2.053-2.79-4.253-2.617-6.609.068-1.067.059-1.383.037-2.068-.161-5.297-2.633-10.303-1.924-15.723 3.839-5.114 8.672-9.218 14.141-11.43 1.937-.784 3.925-1.36 5.938-1.787-5.242-4.565-9.699-10.245-13.654-16.403-12.223-18.893-27.531-34.952-44.852-47.324 14.915-5.494 30.22-8.853 45.814-8.932h.565c10.081.031 20.075 1.568 29.599 5.556 18.333 7.674 35.168 20.504 47.002 38.695 6.229 5.412 12.354 11.006 18.401 16.721-2.783-11.823-6.233-23.755-9.816-35.504-.606-1.996-1.223-3.997-1.833-6.008-5.842-4.4-10.57-10.856-13.351-18.365-4.084-11.029-4.637-23.545-1.391-35.195 1.728-6.207 4.235-12.082 7.229-17.622l.056.229a87.846 87.846 0 0012.03 27.068c8.115 12.318 6.566 32.22-3.533 43.173 1.533 4.49 3.149 8.975 4.663 13.449 3.588 10.612 6.965 21.305 9.645 32.293l1.338 1.284a118.774 118.774 0 0117.192 20.764 418.05 418.05 0 01-3.325-44.308 444.222 444.222 0 01-.31-16.159c-.019-21.957 1.659-43.915 4.91-65.557-.326-7.899-.956-16.32-2.11-23.967-3.606-23.897-12.755-46.914-27.366-63.789a7.799 7.799 0 01-2.224 2.33c-3.484 2.359-7.945.957-9.956-3.129-2.012-4.086-.817-9.321 2.667-11.68 3.484-2.358 7.945-.956 9.957 3.131 1.45 2.944 1.234 6.484-.303 9.114 17.407 17.692 27.917 43.421 32.3 70.586a449.28 449.28 0 0116.395-61.772c-1.925-17.437-6.564-35.415-11.891-51.422a72.53 72.53 0 00-.221-.658c-20.967.259-42.27-14.957-51.414-38.268-3.166-8.07-3.975-17.184-5.167-25.516-2.502-17.496-7.527-34.47-14.814-50.109.115.032.23.061.344.09 17.167 4.536 33.968 12.186 47.52 25.122 5.133 4.898 9.494 10.958 13.413 17.309 11.079 17.945 17.095 40.243 15.058 62.38a84.993 84.993 0 01-.972 7.31c-.034.198-.07.393-.106.589 5.014 13.772 8.928 27.9 11.622 41.997.073.379.143.759.214 1.137a435.723 435.723 0 014.25-11.002A448.523 448.523 0 01314.8 457.07c2.859-15.768 4.222-32.995-1.325-49.335-1.428.853-3.195.252-4.007-1.394-.837-1.704-.34-3.884 1.113-4.867 1.452-.983 3.31-.399 4.149 1.305.838 1.701.339 3.881-1.113 4.865l-.032.022c5.281 11.897 6.91 25.719 6.241 39.146a108.937 108.937 0 002.912-16.647c-.642-1.998-1.467-4.061-2.081-6-1.499-4.788-2.796-9.171 1.978-15.061l.002-.002c-.723-6.643-2.119-13.199-4.244-19.515-2.277 1.323-5.072.357-6.359-2.26-1.341-2.724-.545-6.212 1.778-7.786 2.323-1.573 5.297-.638 6.637 2.087 1.342 2.723.546 6.212-1.777 7.786l-.125.08c2.373 5.81 4.135 11.945 5.285 18.248 2.113-2.259 4.523-4.337 5.344-7.365.183-.676-.651-1.158 1.113-1.153 1.569.022 2.959.872 4.129 2.105 3.128-7.16 6.893-13.964 9.99-20.905 3.451-7.736 4.759-16.558 6.32-25.305-1.312-5.647-2.767-11.289-3.955-17.078l-.101.056c-7.145-9.085-11.95-20.715-13.512-33.004-1.88-14.807-.199-30.274 5.7-43.715 5.018-11.434 12.183-21.47 20.241-30.15l.006.355c.348 15.278 3.154 30.334 8.377 44.435 3.485 9.592 3.719 20.398 1.324 30.459a114.034 114.034 0 0110.126-13.839c4.458-5.205 10.374-8.226 16.539-10.336a28.773 28.773 0 014.24-4.882c7.722-7.051 14.574-15.32 19.635-24.997 0 0-.019-.73.23.212 1.674 6.372 2.945 13.039 3.358 19.686 2.722-1.891 5.665-3.377 8.577-4.832 3.02-1.52 6.021-3.295 8.215-6.166l.009.265c.344 9.611 2.329 18.828 5.028 28.26.964 3.403 1.369 6.946 1.34 10.539.745-.811 1.485-1.63 2.219-2.456 3.189-8.628 4.968-19.301 3.315-30.193-.717-4.73-1.913-9.346-3.382-13.826-1.68.872-3.687.135-4.626-1.773-1.007-2.043-.409-4.66 1.333-5.841 1.742-1.178 3.973-.477 4.978 1.567 1.007 2.043.409 4.658-1.333 5.839a3.55 3.55 0 01-.304.183c4.417 10.55 7.099 22.343 5.53 34.256a51.78 51.78 0 01-.741 4.249 176.664 176.664 0 009.913-13.082c7.239-10.573 12.882-22.719 13.206-36.61.245-10.445-1.006-20.752-.741-31.5l-.168.006c-12.778-5.796-24.422-16.478-28.138-33.045-1.293-5.76-1.786-11.638-1.846-17.541-17.523-10.881-27.276-37.876-19.494-60.357 4.968-14.348 8.255-29.382 8.649-44.867 0 0-.271-1.02.211-.5 10.875 11.769 20.584 25.883 24.298 42.512 4.791 21.447 1.641 45.781-10.95 62.693-.331.444-.535 1.192-1.01 1.312l-.098.121c.025.843.059 1.678.103 2.506.567 10.654 3.175 21.536 9.303 29.573 5.133 6.731 12.136 11.265 19.258 14.539.192-3.608.583-7.27 1.286-11.008 3.317-17.65 10.523-33.859 19.122-49.129 4.766-11.184 8.465-23.065 9.844-35.368.75-6.691.826-13.552-.494-20.084-1.859.69-3.945-.2-4.959-2.264-1.173-2.383-.477-5.435 1.556-6.813 2.032-1.376 4.634-.558 5.807 1.825 1.174 2.385.477 5.438-1.556 6.814a3.994 3.994 0 01-.821.427c2.803 12.463.841 26.01-2.503 38.491a136.382 136.382 0 01-3.515 11.166c2.688-4.536 5.474-8.991 8.289-13.383 9.911-15.454 20.675-30.124 31.765-44.386l-.762 1.014c-17.985 23.998-35.52 48.964-48.372 76.977-7.621 16.607-13.261 34.64-12.982 53.698.179 12.362 2.608 24.789.397 37.416 11.859-8.46 25.029-14.105 38.683-18.559l.31-.157.181-.004c17.874-5.788 36.557-9.567 54.195-14.97-.197-16.696.677-33.537 3.632-49.889-9.751-10.636-11.845-30.202-3.673-42.876 5.346-8.29 9.716-17.411 12.247-27.414 0 0-.162-.636.246.123 5.757 10.76 10.123 23.214 9.126 35.926-1.075 13.729-6.487 27.116-16.638 34.868l-.017.015-.012.009-.108.082s.038.309-.249.152c.081-.042.195-.117.357-.234l.012-.009.017-.015a37.028 37.028 0 003.219-2.856c3.952-3.937 6.77-9.31 8.553-15.026 1.284-4.118 1.81-8.508 2.016-12.861l.009-.212c.214-8.332-1.925-16.722-5.724-24.237 0 0 .009-.046-.023.009-.258.433-.518.864-.783 1.292a101.577 101.577 0 01-9.749 13.217c-2.862 3.337-4.755 7.725-5.708 12.374-1.46 7.122-.262 14.837 2.418 20.847 1.126 2.53 2.67 4.798 4.47 6.797.808-4.47 1.771-8.904 2.912-13.288 1.768-6.801 3.719-13.519 4.006-20.723 0 0 .012-.605.009-.049-.123 10.435-3.619 20.436-5.425 30.453-.265 1.467-.51 2.94-.734 4.419.058.045.106.078.148.102-.101.053-.15.057-.17.04a187.011 187.011 0 00-1.07 8.403c11.511-4.081 22.349-9.872 32.095-17.86.589-11.75 6.935-22.461 15.769-28.774 6.075-4.34 13.623-5.546 20.77-5.543a58.84 58.84 0 012.485.07c-4.897 6.018-8.624 13.123-11.337 20.88-3.861 10.826-14.986 17.318-25.049 14.812-.754-.1-1.576-.238-2.091-.647-9.871 8.699-21.397 14.898-32.835 18.989-1.211 12.639-1.297 25.491-1.107 38.009a221.513 221.513 0 006.85-2.275c17.089-6.005 33.605-15.401 45.655-31.785 12.692-17.143 29.225-30.462 48.605-36.168 8.025-2.363 16.204-3.514 24.457-4.077 9.018-5.654 16.614-14.178 22.122-24.007 2.136-3.812 4.051-7.88 5.014-12.219-.79-.327-1.49-.974-1.942-1.892-1.005-2.043-.408-4.66 1.334-5.84 1.742-1.18 3.973-.479 4.98 1.564 1.005 2.045.406 4.66-1.336 5.841-.949.643-2.044.727-3.007.338-.93 4.423-2.836 8.579-4.984 12.495-5.307 9.672-12.496 18.002-21.017 23.643 24.735-1.526 50.113 1.963 74.062-6.221a91.918 91.918 0 002.975-1.078l-.297.115c-19.31 7.519-40.399 7.137-60.583 7.404-21.886.31-44.357 2.489-63.514 15.437-4.456 3.012-8.641 6.523-12.575 10.393.249.364.5.726.749 1.088 10.052 14.441 21.895 27.031 34.986 37.545a37.544 37.544 0 019.057-1.122c12.264.084 24.273 6.947 33.052 17.13 8.262 9.584 12.806 23.281 15.392 36.753l.047.241c-9.288-5.954-19.391-9.706-29.81-11.103-16.366-2.328-29.603-21.475-28.371-41.341-13.652-10.574-26.022-23.303-36.257-38.036-4.68 4.747-8.999 9.995-12.996 15.502-15.193 20.746-39.345 30.365-61.509 36.632-13.278 3.755-26.743 6.785-39.958 10.781 18.257.901 36.551 6.093 50.552 20.626.287-.293.601-.556.943-.788 2.904-1.965 6.621-.797 8.298 2.608 1.675 3.406.679 7.767-2.223 9.733-2.905 1.967-6.622.797-8.299-2.608-1.466-2.98-.886-6.692 1.226-8.889-15.911-15.183-38.104-18.782-57.499-18.456-13.051 4.367-25.781 9.989-37.761 18.526-.91.647-1.81 1.314-2.705 1.992-.126.484-.26.968-.403 1.453-4.385 14.9-13.601 27.049-22.974 38.198a263.831 263.831 0 01-7.7 8.743c-.61 4.845-1.881 9.693-3.517 14.332a90.198 90.198 0 01-8.856 18.228 405.23 405.23 0 01-2.051 10.567c-.635 3.083-1.293 6.157-2.281 9.059a284.161 284.161 0 0111.808-6.524c43.692-28.567 94.007-44.847 147.538-44.847 167.62 0 303.707 159.623 303.707 356.233 0 62.79-13.881 121.806-38.234 173.057-40.436 106.572-124.183 185.629-224.954 206.329 39.274-4.23 78.13-15.45 115.122-31.93 33.085-14.747 66.461-29.619 101.533-37.123 7.998-1.711 16.064-2.97 24.162-3.699 1.667-21.818 6.098-43.213 15.644-62.872a114.468 114.468 0 015.751-10.396c-7.909-27.119 3.604-60.668 26.708-72.114 2.321-1.149 4.674-2.215 6.963-3.45 12.277-6.625 23.623-15.703 33.36-26.602l.014.373c.64 18.69-1.156 37.794-7.68 54.646-2.437 6.296-5.854 11.998-9.573 17.369-11.824 17.071-29.01 29.097-47.997 30.568a135.931 135.931 0 00-3.527 6.734c10.562 4.121 21.677 6.159 32.879 6.87 8.018-8.597 19.044-13.18 29.85-13.153 11.867.077 23.388 5.178 33.053 14.147 3.53 3.277 6.809 6.92 9.855 10.81-10.391.286-20.932 2.965-30.55 7.866-14.911 7.455-34.134-.946-41.808-18.27a107.446 107.446 0 01-3.591-.102c-10.436-.486-20.849-2.288-30.695-6.068-8.281 17.645-13.253 37.595-15.172 58.439a295.299 295.299 0 00-.418 4.954c10.188-.745 20.42-.638 30.626.481 20.227 2.218 40.188 7.639 60.778 7.875 16.414.188 32.704-2.248 48.812-6.285 11.53-7.4 22.07-17.167 30.66-28.88 4.95-6.752 9.28-14.211 12.24-22.404-1.3-.447-2.46-1.458-3.19-2.938-1.5-3.058-.61-6.974 2-8.74 2.6-1.765 5.94-.716 7.45 2.343 1.5 3.058.61 6.972-2 8.738-1.34.906-2.87 1.071-4.24.603-6.01 17.641-17.86 32.33-30.84 43.547a110.21 110.21 0 01-8.81 6.89c15.57-4.114 30.97-9.664 46.14-15.724 12.95-5.169 25.74-10.832 38.45-16.775-31.25 15.313-63.06 29.336-96.11 37.042-18.722 4.366-37.906 6.161-57 4.365-13.384-1.259-26.636-3.88-40.013-5.489 11.724 6.132 22.863 13.647 32.773 22.871 4.956 4.613 9.65 9.603 14.1 14.873.176-.2.376-.38.597-.53 1.451-.98 3.311-.39 4.148 1.31.838 1.7.341 3.88-1.111 4.86-1.452.99-3.311.4-4.15-1.3-.705-1.43-.462-3.21.501-4.32-14.283-15.687-30.777-27.838-49.601-36.715a465.344 465.344 0 00-3.734-1.736c-4.793-.435-9.606-.692-14.452-.661-24.731.151-49.267 6.266-73.015 14.618 18.945 11.753 36.405 26.544 52.822 42.794.363.02.726.04 1.088.07.905.07 1.806.16 2.697.27 12.487 1.51 24.531 6.92 34.604 15.6 13.645 11.76 24.632 28.07 29.996 47.72 4.459 16.33 5.771 33.71 5.151 50.81-12.812-14.35-27.499-25.26-44.055-33.03-24.911-11.81-39.01-48.37-30.895-78.81.042-.16.087-.32.134-.49-9.232-8.45-18.757-16.28-28.272-23.51-9.222-7.02-18.739-13.501-28.497-19.252l-.169-.232a539.004 539.004 0 00-15.425 5.948c-18.147 7.306-35.568 16.026-54.037 24.196a433.858 433.858 0 01-25.764 10.42c2.933-.15 5.865-.22 8.799-.22 16.902.09 34.451 2.98 46.59 17.57.055-.04.108-.08.164-.11 2.321-1.58 5.296-.64 6.637 2.08 1.342 2.73.544 6.22-1.779 7.79-2.322 1.57-5.296.64-6.638-2.09-1.302-2.64-.587-6.01 1.585-7.64-3.475-3.82-7.499-6.96-11.885-9.24-15.883-8.23-34.256-6.56-50.414-4.44-1.619.21-3.236.44-4.853.69 4.127 2.24 7.742 5.99 10.226 10.81l.004-.01c1.742-1.18 3.973-.47 4.978 1.57 1.007 2.04.409 4.66-1.333 5.84-1.742 1.18-3.974.48-4.979-1.57-.997-2.02-.419-4.61 1.291-5.81-.437-.55-1.7-2.14-2.869-3.3a23.136 23.136 0 00-2.259-1.97c-3.341-2.55-7.362-3.63-11.343-3.79-50.842 15.98-103.705 21.29-156.087 12.21-15.861-2.74-31.546-6.85-46.911-12.28l.522.49c21.044 12.71 43.019 24.36 65.412 33.9 11.817 5.04 23.867 9.48 35.928 13.7 7.63-4.59 16.021-7.08 24.733-7.06 15.321.12 30.742 7.18 41.48 18.62 8.298 8.83 14.861 19.8 20.042 31.44-12.915-3.68-26.692-4.46-39.956-2.14-20.629 3.43-42.12-14.61-46.559-39.18-8.281-2.54-16.548-5.16-24.75-8.14-21.72-7.87-42.866-17.27-63.444-28.5.428.44.852.87 1.273 1.31 13.016 13.43 25.14 28.16 36.648 42.87a28.052 28.052 0 019.582-1.65c12.798.14 25.557 9.11 30.501 23.11 4.014 11.36 9.494 21.97 16.672 30.91l.335.41c-13.247.66-27.021-1.56-37.67-10.39-11.257-9.33-19.685-23.41-20.807-39.96l.03.4c.671 8.59 3.825 16.9 8.483 23.62 5.246 7.57 12.407 13.54 20.39 16.5 5.401 2.01 11.126 2.56 16.766 2.48 0 0-1.335-3.3-2.189-5.42a108.161 108.161 0 01-5.276-16.96c-1.327-5.82-4.33-11.09-8.125-15.14a30.354 30.354 0 00-9.567-6.84c-3.364-1.54-7.064-2.32-10.729-2.44h-.198c-2.765.03-5.509.48-8.18 1.39 3.269 4.18 6.487 8.35 9.662 12.49 5.863 7.63 11.614 16.03 19.353 19.94-6.274-2.8-11.195-8.59-16.078-14.25-4.833-5.61-9.605-11.24-14.403-16.85.006.17.016.33.024.5l-.025-.5zm324.645-64.46a368.41 368.41 0 013.481 3.48c14.069 14.22 27.542 29.43 38.761 46.91 3.672 5.72 7.184 11.68 9.459 18.27-2.598-6.85-6.557-13.01-10.672-18.91-12.344-17.7-26.913-33.51-42.297-47.6-3.269 12.33-2.928 25.81.785 38.29 1.99 6.69 5.03 13 8.811 18.61 6.064 9 14.562 15.5 24.065 19.09 12.144 4.64 23.712 11.38 34.546 19.69l.095.08c.399-16.79-1.192-34.23-7.812-49.41-5.349-12.25-12.934-23.2-21.99-31.82-4.825-4.6-11.681-9.25-18.304-12.21l-.204-.09c-4.782-2.01-9.752-3.4-14.944-4.04-.896-.11-1.796-.2-2.697-.27-.36-.03-.72-.05-1.083-.07zm-272.867 55.58c.426 2.04 1.304 5.87 2.409 8.73 2.962 7.69 8.043 14.53 13.671 19.07 6.388 5.16 14.139 8.49 22.731 8.38 1.031-.02 6.023-.87 8.614-1.58 8.74-2.35 17.758-3.3 26.718-3.2h.053c-3.856-8.15-8.575-15.84-14.329-22.16-7.95-8.72-18.962-14.06-29.542-16.26-2.815-.58-5.746-.78-8.65-.78-5.062.04-10.105 1-14.958 2.86-1.359.52-4.157 1.83-6.506 3.25 7.55 2.64 15.107 5.19 22.614 7.75 7.74 2.65 15.551 5.18 22.781 9.18 1.872 1.04 3.701 2.2 5.394 3.6l.102.09c-.146-.12-.292-.23-.44-.34-5.158-3.89-11.117-5.97-17.021-8-11.154-3.84-22.41-7.14-33.641-10.59zm-193.033-65.5c-1.759 6.26-4.913 11.95-9.798 15.79-4.478 3.47-8.906 7.02-12.812 11.28a79.685 79.685 0 00-3.06 3.55c3.308 6.73 6.837 13.34 10.698 19.78 4.163 6.94 8.805 13.61 14.493 18.69-9.228-7.77-15.875-19.01-22.034-30.34-1.309-2.4-2.591-4.83-3.852-7.27-2.594 3.25-5.022 6.69-7.435 10.14-4.039-4.01-8.736-6.73-13.582-9.06 5.492 14.96 14.056 28.64 24.313 39.65 12.263 13.16 28.323 20.94 44.631 26.13 1.287.41 2.58.78 3.878 1.15l.136.04c-.119-.39-.236-.77-.352-1.16a238.911 238.911 0 01-9.826-56.86 75.1 75.1 0 00-1.771-12.68c-1.896-8.3-5.332-16.18-9.713-23.19a73.276 73.276 0 00-3.914-5.64zm-120.259-3.23c.655 7.46 2.581 14.81 5.566 21.64 5.788 13.36 9.908 27.71 12.555 42.58l.022.13c10.403-11.54 19.794-25.19 24.258-41.41.612-2.23 1.157-4.48 1.631-6.75a27.85 27.85 0 01-1.927-3.58c-4.586-.19-9.207-.85-13.739-1.75l-.057-.01c-.942 5.84-2.198 11.65-3.853 17.43 1.44-5.78 2.484-11.64 3.216-17.56-9.638-1.97-19.345-5.11-27.672-10.72zm70.965-63.247c-.734 2.696-1.044 5.495-.544 8.485 1.234 7.384 8.151 12.287 8.199 20.619.019 3.083-.866 6.192-2.507 8.429-3.733 5.091-9.901 6.422-15.26 7.04-5.188.597-10.45.541-15.674-.066-2.982 10.28-4.559 21.37 1.508 30.81 6.927 10.77 19.713 13.66 29.052 17.31 3.14 1.24 6.261 2.57 9.252 4.22l.139.08c.336-.41.676-.8 1.017-1.2 6.15-7.16 13.199-13.16 20.88-18.2 11.861-7.77 12.127-23.63 11.751-35.97a92.63 92.63 0 00-1.048-11.358c-1.751-.479-3.531-.852-5.348-1.04-5.23-.545-10.431-1.462-15.083-5.437-6.128-5.238-10.114-12.932-12.898-21.24 2.393 19.372 4.024 38.744 3.452 58.355l-.009.3c-.196-20.231-2.956-40.542-6.059-60.218-.508.077-1.018.137-1.524.181 1.181 19.097 3.238 38.344 2.024 58.507-.327 5.44-.891 10.92-2.502 15.98 0 0 .132-.49.246-.94 2.58-10.35 1.96-21.55 1.386-32.434-.724-13.736-2.351-27.426-3.505-41.031a23.334 23.334 0 01-6.945-1.182zm156.892 77.757a255.982 255.982 0 0067.916 9.15c97.23 0 183.632-54.804 237.961-139.49-28.388 37.01-63.287 67.013-102.571 87.52-43.692 28.57-94.007 44.85-147.538 44.85-35.296 0-69.194-7.08-100.717-20.09 14.549 7.27 29.579 13.32 44.949 18.06zm-50.977-47.048c-.823 6.047-2.554 11.703-5.418 16.268 34.623 16.56 72.492 25.68 112.163 25.68 28.827 0 56.703-4.82 83.074-13.8a261.502 261.502 0 01-58.778 6.68c-46.915 0-91.36-12.51-131.041-34.828zm-183.883-43.941c-3.459 7.197-4.464 16.109-4.632 24.406-.225 11.007.839 22.278 4.598 31.986.456 1.177 1.305 2.803 1.305 2.803 1.798 4.854 5.695 8.164 9.615 11.074 10.988 8.16 23.691 12.51 36.598 14.11-2.166-8.76-.438-18.2 2.295-26.96-10.49-1.559-20.76-5.287-29.906-10.339-3.286-1.813-6.475-3.898-9.414-6.407-5.548-12.073-7.98-26.202-7.267-39.353a78.12 78.12 0 01-3.192-1.32zm184.451 36.347c39.406 22.603 83.685 35.292 130.473 35.292 42.893 0 83.679-10.66 120.534-29.855 91.127-59.707 152.801-173.974 152.801-305.001 0-92.718-30.882-177.044-81.228-239.582-53.318-59.054-125.208-95.278-204.255-95.278-111.709 0-209.126 72.342-260.028 179.23-16.362 43.229-25.455 91.069-25.455 141.38 0 51.424 9.5 100.266 26.551 144.239 2.998-2.425 6.298-4.26 9.863-5.201 2.995-.791 6.088-1.095 9.145-1.084 7.298.077 14.788 1.821 21.515 5.176 3.316-2.785 6.476-5.89 9.269-9.714l.248.194c11.638 9.149 22.535 20.224 29.514 34.022 5.581-3.805 11.933-5.965 18.334-6.062.155-.002.311-.002.467-.002 16.542.094 30.655 17.657 48.156 24.472l.316.12c-3.022 12.99-2.873 26.92-5.017 40.344-1.527 9.562-4.92 18.836-11.809 24.895-2.215 1.948-4.608 3.518-7.112 4.799 5.244 3.975 9.725 9.542 12.968 15.363 5.037 9.046 8.705 19.746 8.413 30.24-.079 2.877-1.623 5.291-3.722 7.442.066 1.523.086 3.05.059 4.571zm-5.406-.046c-9.67 7.366-20.815 12.967-31.901 13.329-6.558.214-13.053-3.2-19.951-5.455 1.58 8.359 2.161 16.914 1.767 24.774 10.995.33 22.136-1.89 32.143-5.88 2.492-.99 5.08-2.04 7.116-3.742 0 0 2.794-1.581 4.452-3.705 4.03-5.161 5.786-12.345 6.374-19.321zM291.72 998.389c.095.126.191.252.29.376 5.297 6.695 13.698 9.235 21.154 8.565-7.744 1.29-16.162-1.15-21.352-8.8-.059-.088-.155-.225-.092-.141zm137.665-5.247c-5.868 5.401-14.063 6.958-21.199 3.547l.322.123c.179.066.178.066.357.13 6.771 2.37 14.353.983 20.263-3.599l.142-.113c.073-.057.184-.152.115-.088zm-97.417-64.252c-3.552-.552-7.128-1.752-10.666-3.715-6.297-3.495-11.901-8.595-18.112-11.706-1.748-.875-3.583-1.566-5.531-1.548-6.6.119-12.348 7.462-14.277 14.665-3.114 11.636-1.315 24.882 1.806 36.363 1.139 4.185 2.498 8.302 4.329 12.126 0 0 .322.488.709.842 6.001 5.461 13.008 9.281 20.155 12.336 10.534 4.505 21.737 7.411 32.854 6.437 5.157-.451 10.911-1.871 13.16-7.201 2.234-5.296-.352-11.678-3.557-17.279-2.738-4.838-3.551-11.028-1.89-16.511-3.324-1.167-6.429-3.07-9.14-5.59-4.852 4.26-10.15 7.668-15.701 9.955l-.136.056c5.338-2.779 10.24-6.661 14.634-11.197a30.467 30.467 0 01-2.875-3.5c-8.628 6.144-17.756 11.145-27.307 14.491l-.176.062c9.33-4.037 18.051-9.794 26.254-16.439-1.804-2.994-3.197-6.406-4.053-10.152a37.15 37.15 0 01-.48-2.495zm32.627 25.542c4.171 12.128 10.578 24.57 23.678 26.149 2.432.293 4.914-.04 7.367.338 7.36 1.137 14.521 4.193 22.028 4.798 8.688.7 17.607-4.966 24.693-9.93 4.353-3.048 8.977-6.438 11.569-10.95 0 0 .098-.523.124-.805 1.149-12.588-4.065-25.191-10.257-34.043-5.048-7.221-12.263-12.744-20.577-12.951-.169-.003-.335-.003-.504-.003-12.584.119-25.001 4.731-36.786 5.979.02 6.375-1.602 12.512-4.506 17.681a110.428 110.428 0 008.929 5.745c15.132 8.712 31.897 13.19 48.747 13.8l.283.011c-20.515.236-40.895-5.408-59.327-17.334-.438.65-.899 1.284-1.382 1.897 4.743 4.044 9.944 7.502 15.567 10.238 7.181 3.492 14.722 5.908 22.371 7.637l.218.049c-13.939-2.275-27.82-6.995-39.735-16.08-3.12 3.361-6.958 5.914-11.332 7.288-.395.124-.791.238-1.187.34l.019.146zM844.25 539.83c15.143 42.337 23.512 88.818 23.512 137.574 0 105.103-38.892 199.638-100.7 264.866 33.171-29.276 60.964-66.494 81.319-109.238 16.361-43.227 25.454-91.067 25.454-141.379 0-54.399-10.629-105.907-29.585-151.823zM334.776 908.005c-6.391-5.94-11.793-13.056-15.637-20.434-2.599-4.988-5.162-11.512-1.848-15.339.835-.938 3.286-3.679 5.053-6.707-5.149-5.364-10.556-10.099-16.477-13.477-4.688-2.677-9.986-4.159-15.104-2.584-10.07 3.1-17.457 13.454-25.338 19.01a49.87 49.87 0 01-5.835 3.564s1.297 4.69 2.073 9.167c1.67 9.632.824 19.641.76 29.415-.034 5.194.908 10.521 2.289 15.598 1.438 5.291 5.107 9.145 9.967 11.448.726.345 1.455.68 2.186 1.007a72.508 72.508 0 011.575-9.684c2.183-9.27 7.749-18.082 16.821-19.89a9.382 9.382 0 011.926-.177c8.185.137 14.642 8.48 22.778 13.908 3.718 2.478 7.755 4.379 11.902 5.384a37.318 37.318 0 01-.346-4.465 61.744 61.744 0 01-11.036-4.536c-15.253-8.043-28.993-19.844-43.229-30.44 0 0-.587-.415.006-.011 17.15 11.666 33.482 25.539 52.215 31.709.697.228 1.393.442 2.094.637.044-.818.115-1.633.214-2.439-13.892-5.819-26.63-15.517-37.014-28.615 0 0-.441-.53-.035-.064 10.539 12.099 23.35 21.069 37.429 26.232a35.684 35.684 0 012.611-8.217zm587.909 4.311c.654 1.382 1.768 3.611 2.84 5.183 5.238 7.687 13.415 12.546 21.961 13.37.823.073 1.22.066 1.843.068 2.875.002 5.745-.47 8.497-1.44 0 0 3.438-1.542 5.352-2.88.21-.145.21-.145.42-.287 5.658-3.776 11.808-6.702 17.866-8.933l.091-.033c-6.238-7.554-13.535-13.55-23.016-16.15a42.765 42.765 0 00-11.385-1.492c-5.163.037-10.289 1.312-15.06 3.641l-.12.06a39.627 39.627 0 00-5.187 3.312c-.863.647-3.004 2.503-4.551 4.179.849.055 1.7.101 2.549.139 11.924.545 24.175-.742 35.339 2.804 1.468.477-.943-.278-2.749-.636-11.321-2.25-22.978-.757-34.69-.905zm-536.779 9.487a76.747 76.747 0 008.827-1.8c9.805-2.617 19.439-6.439 29.579-6.538h.276c4.231.035 8.309 1.358 12.08 3.551 5.668-2.862 10.707-7.127 13.8-14.132 4.855-10.991 3.945-23.921 4.378-35.906.157-4.105.4-8.204.833-12.278l.019-.179c-7.803-4.796-14.905-10.993-22.14-16.733-5.999-4.743-12.665-8.433-20.131-8.473h-.268c-4.743.046-9.451 1.342-13.78 3.619a26.33 26.33 0 00-1.204.676c4.026 9.012 5.777 19.396 3.2 29.276-4.093 15.68-10.074 30.992-20.174 42.26.256.441.503.891.742 1.347 13.094-8.75 25.894-18.257 38.257-28.881 6.232-5.355 12.339-10.907 18.42-16.495 0 0 .572-.551.006.01-17.522 17.371-35.724 33.606-55.495 47.903.418.998.794 2.027 1.125 3.088 3.54-1.502 7.046-3.13 10.502-4.927 9.057-4.706 17.748-10.737 24.541-19.187 0 0 .351-.463.01.009-8.917 12.316-21.399 20.432-34.376 26.575l.065.281c.528 2.312.826 4.635.908 6.934zM512.64 454.504c6.354-.011 10.877 7.632 13.281 13.287a55.936 55.936 0 011.482 3.885 71.24 71.24 0 012.666 10.386s-1.674.296 2.87-.453c9.048-1.491 18.484 1.504 26.282 8.482 11.307 10.114 17.03 27.578 17.441 42.293.416 14.868-3.688 30.15-13.029 41.545-.152.754-.124.619-.263 1.33l-.147.768c-.257 1.38-.146.776-.356 1.964-.069.39-.027.145-.197 1.15l-.048.29c-.001.008-.012.081-.076.472l-.231 1.482c-.092.609-.065.435-.167 1.137-.104.729.036-.292-.152 1.102-.087.64.018-.157-.095.727l-.133 1.06c-.138 1.166-.036.238-.204 1.801l-.104 1.028c-.109 1.143-.033.282-.158 1.749-.054.64.019-.266-.082 1.02-.047.612.014-.238-.072 1.009-.036.526.008-.135-.042.667l-.056.965c-.056 1.095-.02.239-.073 1.648 0 0 .009-.328-.022.642-.017.492.001-.134-.019.636 0 0 .006-.325-.014.632-.009.485.002-.133-.009.627 0 0 .001-.325-.006.622-.005.477-.002-.134-.002.615 0 0-.003-.318.002.613.001.473-.004-.132.004.608 0 0-.004-.316.011.603.008.464-.004-.131.013.598 0 0-.011-.314.017.592.006.199.004.203.004.199 0-.005 0-.025.016.39l.036.849c.05 1.005.009.297.082 1.459l.078 1.102c.148 1.869.035.599.203 2.226 0 0-.003 0 .089.806.062.55-.011-.041.129 1.06.069.544-.009-.024.142 1.043.076.536-.01-.031.154 1.027.081.527-.012-.044.167 1.011.09.53-.013-.035.177.992.095.521-.014-.042.189.978.103.514-.014-.046.201.961.109.51-.013-.034.21.945.116.503-.014-.04.223.931.125.511-.023-.053.292 1.142 0 0-.005.002.244.895 0 0-.005.002.254.881 0 0-.005.002.265.868 0 0-.005.004.273.852 0 0-.005.003.282.839 0 0-.005.003.291.824 0 0-.005.004.299.811 0 0-.003.004.309.799 0 0-.005.002.316.784 0 0-.005.002.324.771 0 0-.005.002.332.759 0 0-.005.003.34.747 0 0-.005.002.347.733 0 0-.005.004.354.722 0 0-.005.002.36.711 0 0-.003.002.367.696 0 0-.004.004.374.687 0 0-.006.006.475.843 0 0-.004.005.487.824 0 0-.005.006.493.806 0 0-.004.007.504.791 0 0-.005.006.511.774 0 0-.006.003.519.756 0 0-.007.004.525.742 0 0-.005.004.533.726 0 0-.005.003.54.709 0 0-.004.005.546.694 0 0-.004.007.55.68 0 0-.002.007.557.665 0 0-.004.004.561.651 0 0-.001.011.68.76 0 0 .011.024.684.742 0 0 .023.035.688.72l.561.57c1.32 1.313.207.233 1.417 1.373 0 0-.004.005.699.649 0 0-.003.003.7.628 0 0-.002.006.701.613 0 0-.003.003.699.595 0 0-.003.004.698.578 0 0-.003.004.695.561 0 0 .035.035.921.724 0 0 .047.042.915.694 0 0 .032.031.903.669 0 0 .047.038.893.641 0 0 .133.101 1.097.77 0 0 .165.119 1.072.731l1.24.828c1.024.672.747.49 1.214.795 0 0 .767.495.773.501 1.996 1.292 4.031 2.536 5.846 4.108 1.924 1.667 2.328 3.085 2.596 4.642a12.08 12.08 0 01.131 3.107c-.13 1.52-.125 1.504-.239 2.904l-.129 1.601-.148 1.844-.164 2.074-.185 2.296-.201 2.507-.957 11.98v-.002c-.835 10.523-1.669 21.043-2.501 31.567-4.543 57.521-8.957 115.419-13.758 172.649-.229 2.975-.903 5.87-3.253 7.126-3.844 2.054-8.532 4.757-11.341 1.725-.974-1.053-1.325-2.613-1.441-4.287v-.008c-.251-3.642-.413-6.146-.603-9.03-4.98-75.844-9.547-150.732-14.251-226.818 0 0-.204-3.088-.318-5.548-.057-1.237-.109-2.473-.162-3.708l-.032-.755-.072-1.53c-.034-.701-.022-.458-.059-1.16-.048-.952-.038-.7-.064-1.168-.103-1.84-.051-.941-.148-2.356-.061-.912-.048-.694-.086-1.188-.078-1.03-.071-.897-.131-1.591-.081-.932-.063-.706-.112-1.197-.089-.934-.07-.706-.123-1.201-.1-.93-.079-.706-.137-1.203-.181-1.522-.083-.689-.206-1.603l-.143-.996c-.084-.561-.028-.197-.123-.804-.14-.888-.013-.118-.2-1.199-.096-.557-.017-.107-.143-.798-.162-.877 0-.044-.232-1.192-.111-.555-.019-.11-.165-.793-.189-.888-.055-.274-.267-1.186-.127-.55-.022-.106-.19-.786-.109-.442-.04-.168-.148-.588l-.26-.969c-.192-.683-.1-.356-.224-.782l-.231-.768c-.21-.676-.109-.351-.246-.773l-.254-.758c-.232-.669-.12-.347-.271-.766l-.279-.748c-.254-.659-.131-.343-.296-.754l-.304-.737c-.277-.649-.143-.338-.324-.744l-.332-.727c-.301-.638-.156-.331-.35-.731l-.36-.713c-.328-.627-.17-.325-.382-.718l-.39-.7c-.353-.614-.182-.32-.413-.704l-.42-.685c-.382-.601-.197-.312-.444-.689l-.454-.669c-.536-.767-.151-.234-.723-1.003 0 0-1.455-2.087-1.453-4.059.003-1.199 0-.644-.003-1.367l-.011-.996c-.024-1.596.004-.271-.039-1.937l-.028-.933c-.032-.851-.007-.263-.05-1.222-.048-1.122-.008-.291-.077-1.479l-.056-.859c-.056-.793-.015-.257-.085-1.133-.086-1.056-.027-.362-.127-1.372l-.085-.803c-.084-.742-.025-.252-.126-1.06-.125-.999-.028-.268-.178-1.292l-.157-1.01c-.148-.881-.078-.463-.176-1.004l-.189-.981c-.319-1.566-.097-.545-.428-1.946 0 0-.022-.114-.239-.96 0 0-.026-.12-.255-.954 0 0-.033-.135-.275-.954 0 0-.018-.078-.293-.952 0 0-.026-.102-.31-.954 0 0-.039-.13-.33-.958l-.171-.477c-.396-1.085-.098-.296-.549-1.458l-.19-.486c-.455-1.135-.153-.399-.611-1.488l-.212-.5c-.518-1.201-.213-.503-.674-1.53l-.235-.517c-.22-.477-.142-.309-.365-.788l-.452-.956c-.223-.02-.444-.046-.665-.071-12.308-1.482-23.236-12.175-28.532-27.637-4.246-12.392-4.852-26.594-.707-40.329 2.324-7.705 6.522-15.119 11.671-20.439.731-.755.368-.157.162-.87l-.194-.623c-.247-.764.054.106-.402-1.157 0 0-.013-.057-.37-.943 0 0-.018-.066-.399-.923 0 0-.113-.26-.5-1.06 0 0-.034-.086-.456-.894 0 0-.041-.091-.485-.883l-.501-.846c-.329-.539.021.03-.373-.597 0 0-.179-.293-.754-1.133 0 0-.206-.307-.801-1.119 0 0-.232-.32-.849-1.104 0 0-.201-.261-.779-.954-.218-.261-.014-.022-.458-.541-.181-.21.087.099-.352-.404-.222-.252.103.116-.357-.402 0 0-.025-.031-.608-.667 0 0-.032-.038-.623-.663 0 0-.039-.046-.636-.66 0 0-1.645-1.809-2.469-3.692-1.842-4.21-1.384-9.653 1.112-13.386 1.971-2.948 5.061-4.803 8.328-4.801l.156.001zM380.712 904.333a61.234 61.234 0 006.29-8.763c5.857-9.918 9.235-21.951 11.647-33.662 2.429-11.795-2.289-24.062-9.457-33.77-6.018-8.151-13.354-14.871-21.174-20.591 0 0-.011-.013-.019-.006-10.26 9.78-24.339 13.449-32.679 25.541-4.346 6.297-5.309 14.927-6.797 22.592-1.375 7.091-5.141 13.301-9.948 17.956-.246.238.055-.093-.231.236l-.557.882c-.139.337.004-.074-.148.393 0 0-.214.942-.218.973-.053.382-.013.04-.043.382-.475 5.597 2.838 11.396 5.737 16.018a80.23 80.23 0 0011.973 14.833c3.471-7.155 9.286-12.742 16.595-15.039a23.57 23.57 0 012.071-.552c.207-5.293.684-10.54 1.255-15.624.865-7.681 2.155-15.295 3.904-22.763 0 0 .107-.528.01.004-2.259 12.503-3.639 25.374-3.382 38.063a22.825 22.825 0 013.34-.221c.077-.788.156-1.566.239-2.338 1.866-17.51 5.428-35.007 12.288-50.674.384-.872.194-.423.142-.293-6.548 16.66-9.358 34.899-10.515 53.42 7.838.788 15.048 5.561 19.677 13.003zm131.643-443.741c-4.297.104-7.476 7.25-3.677 11.43 5.606 6.009 10.423 13.403 11.754 22.376-20.765 16.883-22.433 58.592-2.234 78.067 4.473 4.313 9.954 7.222 15.715 8.038 3.197 6.476 5.749 13.43 6.757 20.795.628 4.6.628 9.208.826 13.835.114 1.831 1.516 3.07 2.441 4.439 8.531 12.618 8.425 30.802 9.676 46.327l.028.327c5.154 72.813 10.263 145.438 15.548 218.3.443 6.111.873 12.223 1.354 18.319.058.629.633 1.075 1.15.887 2.183-.872 4.365-1.751 6.513-2.729.768-.369 1.025-1.352 1.119-2.546 5.684-73.508 10.529-146.722 15.906-220.017.279-3.801.776-7.561.843-11.344-.014-2.034-2.083-2.745-4.082-4.042-7.594-4.896-15.126-10.046-21.195-17.172-7.553-8.868-12.653-20.452-14.608-32.949-2.216-14.151-.782-28.772 2.089-42.548 12.275-13.911 15.522-36.911 9.247-55.527-4.459-13.233-14.236-24.84-27.081-26.538-4.984-.658-10.093.279-14.73 2.624-1.22-9.657-2.957-19.387-8.267-27.059-1.301-1.879-2.925-3.319-5.092-3.293zM892.878 897.31l.468-.042a55.02 55.02 0 002.245-.251c10.185-1.343 20.612-6.413 29.175-14.203 10.612-9.654 18.897-23.196 22.86-36.903 3.24-11.199 4.207-23.334 4.03-35.257 0 0 .074-.095-.07.011-9.999 7.392-20.915 13.286-32.173 17.442a37.7 37.7 0 00-7.169 3.606c-4.537 2.917-8.763 7.193-12.225 11.994-.064.088-1.557 2.243-2.719 4.242-2.317 3.991-4.208 8.33-5.654 12.85l-.066.206c-2.557 8.575-3.496 17.77-2.273 27.061a58.012 58.012 0 001.784 8.443c7.914-12.734 17.923-23.727 27.944-34.279 6.431-6.788 12.866-13.746 17.462-22.339 0 0 .226-.442.005.002-8.163 16.234-22.205 27.624-32.934 41.312-3.951 5.043-7.511 10.428-10.69 16.105zm-540.329-86.894c-7.262-2.401-15.009-2.696-21.969-.731-2.321.654-4.612 1.612-6.572 3.187 0 0-1.393.73-2.493 1.459-9.314 6.181-15.487 17.799-19.683 29.217-.196.534-.388 1.069-.577 1.607 5.737 2.165 10.96 6.471 15.391 10.832 2.365 2.326 4.626 4.788 6.823 7.33 3.383-7.72 2.382-17.479 4.981-25.522 2.217-6.864 6.385-12.769 11.393-17.38 4.017-3.701 8.395-6.764 12.706-9.999zm-49.321 15.763l-.399-.026a62.517 62.517 0 01-1.613-.126 38.913 38.913 0 01-1.316-.146c-2.258-.3-4.528-.965-6.443-2.445a7.664 7.664 0 00-.126.128c-4.032 4.029-10.193 3.912-16.165 4.408-2.769.23-5.547.413-8.316.555a53.797 53.797 0 01-7.471 3.034c-1.01 2.875-1.436 5.455-1.722 8.637-.009.104-.285 4.889-.084 8.869v.024c3.838-3.019 5.938-8.456 8.543-12.645 1.495-2.405 3.695-4.635 6.446-4.37 0 0 1.644.388 2.619.894 2.395 1.225 5.028 1.859 7.612 1.497 3.15-.44 6.205-2.405 9.275-4.169 0 0 2.809-2.12 4.345-2.052.303.011.36.014.452.013a21.47 21.47 0 003.509-.338 85.24 85.24 0 01.854-1.742zm299.794-109.453c6.633-11.245 13.604-22.253 21.082-32.69 0 0 1.519-1.897 2.9-.963 1.326.899.837 3.149.137 5.366-4.849 15.351-10.492 30.266-16.703 45.122-.704 1.687-1.008 4.015.772 4.405 1.224.268 2.13-1.378 2.91-2.749 7.995-13.979 16.444-27.717 25.668-40.59 0 0 1.605-1.979 3.059-.994 1.38.934.92 3.24.193 5.544-4.851 15.359-10.495 30.276-16.708 45.136-.67 1.606-1.033 3.82.681 4.194 1.17.256 2.02-1.347 2.783-2.686 7.996-13.981 16.447-27.723 25.677-40.602 0 0 1.689-2.063 3.218-1.028 1.355.919 1.091 3.046.361 5.365-4.883 15.536-10.669 30.784-16.824 45.51-.634 1.514-1.181 3.57.572 3.979 1.254.292 2.074-1.572 3.015-3.218 7.954-13.87 16.285-27.45 25.52-40.263 0 0 1.734-1.808 3.2-.814 2.541 1.722-.092 7.252-1.743 12.181-4.416 13.186-9.319 26.087-14.67 38.887-.608 1.453-1.073 3.474.535 3.779.173.033.352.03.525-.011.905-.213 1.355-1.484 1.968-2.556 7.999-13.989 16.455-27.735 25.693-40.627 0 0 1.861-2.228 3.536-1.093 2.501 1.692.114 6.952-1.469 11.707-4.473 13.42-9.478 26.595-14.894 39.553-.628 1.502-1.025 4.017.921 3.558.87-.207 1.295-1.451 1.889-2.493 8.002-13.994 16.458-27.743 25.702-40.641 0 0 1.95-2.309 3.696-1.126 2.549 1.725.196 7.052-1.415 11.89-4.473 13.425-9.48 26.604-14.897 39.565-.589 1.411-1.039 3.748.768 3.346.843-.188 1.239-1.416 1.818-2.432 8.004-13.998 16.462-27.75 25.709-40.656 0 0 2.044-2.393 3.864-1.161 2.549 1.727.358 6.903-1.148 11.448-4.524 13.648-9.626 27.088-15.111 40.212-.554 1.327-1.048 3.498.625 3.123.801-.179 1.17-1.38 1.733-2.366 8.007-14.001 16.464-27.756 25.717-40.669 0 0 2.135-2.477 4.03-1.195 1.326.895 1.71 2.821 1.1 4.81-8.13 26.514-18.814 52.345-30.646 76.588-.039.08-.438.895-.479.976-2.36 4.735-7.589 7.045-11.938 4.625-12.362-7.102-24.462-14.578-36.584-22.048a2543.718 2543.718 0 01-61.399-39.073l.328-4.364a2274.1 2274.1 0 0013.376 8.395c28.309 17.635 57.489 34.626 86.733 50.865 1.811.971 3.565-.619 4.698-2.922 8.376-17.08 15.917-34.791 22.653-52.946l.393-1.064a545.59 545.59 0 00-13.874 22.991c-2.006 3.516-5.877 5.21-9.088 3.328-2.396-1.407-2.854-2.783-3.364-4.419-.833-2.674-.017-5.56 1.113-8.246a603.815 603.815 0 009.993-25.477 550.692 550.692 0 00-14.545 24.04c-1.969 3.449-5.771 5.121-8.918 3.275-2.364-1.387-2.8-2.732-3.299-4.331-.819-2.628-.023-5.437 1.105-8.127a604.933 604.933 0 0010.366-26.493l.058-.157c-5.413 8.387-10.578 17.055-15.591 25.745-1.883 3.184-5.791 4.366-8.703 2.327-2.964-2.077-4.006-6.797-2.337-10.752a600.403 600.403 0 0011.248-28.726l.116-.325c-5.637 8.703-10.987 17.656-16.208 26.706-1.85 3.122-5.675 4.282-8.537 2.281-3.021-2.114-3.902-6.733-2.287-10.558a585.122 585.122 0 0011.755-30.136l-.783 1.208c-5.547 8.598-10.818 17.393-16.033 26.434-1.814 3.063-5.559 4.201-8.372 2.237-2.801-1.958-3.872-6.487-2.236-10.363a587.207 587.207 0 0012.138-31.205c-6.052 9.265-11.849 18.911-17.416 28.561-2.154 3.638-7.16 4.245-9.81.63-1.952-2.661-1.449-6.535-.036-9.9a596.079 596.079 0 0011.966-30.963c-6.266 9.559-12.315 19.6-18.005 29.461-2.071 3.5-6.955 4.156-9.564.682-1.709-2.274-1.804-5.677-.609-8.51.273-.645.542-1.288.813-1.933a595.664 595.664 0 0012.01-31.208l.052-.144c-5.932 8.973-11.54 18.213-17.001 27.605.251-3.233.502-6.444.753-9.627zM331.08 822.714c-6.916 4.022-11.104 13.094-12.494 21.773.935-9.103 5.093-18.116 12.494-21.775 0 0 .08-.044 0 .002zm-163.63-24.462c1.693 4.03 3.611 7.851 5.905 11.301.947 1.424 1.979 2.782 3.203 3.868 0 0 .106.095.527.424a61.83 61.83 0 006.164 4.145c3.784 2.2 7.748 4.015 11.735 5.704 2.197.89 4.41 1.71 6.616 2.487 11.594 4.084 23.536 6.72 35.63 7.394 6.765.377 13.715-.064 20.414-1.469 3.693-.775 7.355-1.943 10.863-3.562-2.025.102-4.046.183-6.056.245-3.509.049-7.047-1.031-10.592-1.826-16.051-3.606-32.29-7.617-47.31-14.591-7.413-3.444-13.851-9.475-19.227-16.496-6.869-4.403-14.284-7.776-21.741-10.887l-.422-.174-.572-.228c.534 1.606 1.066 3.22 1.609 4.83 12.412 16.023 28.47 28.516 46.921 34.613 9.583 3.165 19.521 4.744 29.49 5.119l.289.011c-22.861.208-45.938-6.468-64.526-22.289a101.083 101.083 0 01-8.92-8.619zm76.779 31.474a7.104 7.104 0 00.575.148c3.3.722 6.787.388 9.984.265-3.449.709-7.056 1.186-10.436-.352a4.681 4.681 0 00-.07-.033c-.036-.017-.093-.04-.053-.028zm27.271-43.748c-1.888-2.334-3.787-4.69-5.719-6.98l-.268-.318c-6.452-7.467-13.004-14.81-19.783-21.857-5.896-6.104-11.624-12.278-18.663-16.377-5.295-3.081-11.943-3.381-18.094-3.357-2.702.025-5.785-.256-7.814 1.42 0 0-2.191 1.61-3.844 2.661a77.037 77.037 0 01-2.435 1.48c16.268 7.323 31.268 18.292 43.62 32.562l.129.148c-13.773-13.994-30.482-23.846-47.587-30.614l-.368.186c-3.793 1.921-7.681 3.548-11.592 5.087 22.513 16.813 45.883 31.799 71.191 44.861l.246.128c-23.67-10.823-46.922-23.521-69.012-39.086a261.808 261.808 0 01-3.338-2.396c18.493 18.453 40.933 31.98 64.162 42.935l.233.109c-21.963-9.002-43.527-19.637-62.338-36.582-.503-.453-1.003-.912-1.501-1.374 1.557 4.386 2.942 8.777 2.726 13.531-.105 2.295.187 4.578.766 6.822 10.017 7.402 22.195 15.681 33.968 21.898 14.254 7.524 29.207 13.208 44.554 16.569l.274.06c-27.232-4.598-53.541-16.759-76.213-32.516-.18-.126-.361-.25-.54-.376 1.288 2.798 2.909 5.49 4.629 8.014 4.476 6.57 9.964 12.491 16.251 16.049 7.842 4.438 16.316 7.402 24.657 10.366 7.678 2.729 15.404 5.081 23.192 7.179l.254.068c3.027.762 6.115 1.692 9.066 1.833 0 0 5.446-.031 9.824-.154 6.289-.175 12.797.114 18.601-2.635.975-.461 1.863-1.13 2.648-1.945a10.328 10.328 0 01-1.989-2.081c-.697-.947-.879-1.154-1.329-1.691-5.589-6.634-12.911-10.647-16.473-20.598-1.466-4.098-2.284-8.572-2.091-13.029zm33.624 36.643a104.97 104.97 0 01-5.047-14.285s-.858-2.926-1.531-5.468c-.499-1.886-.976-3.781-1.454-5.674l-.037-.145c-1.339-4.897-2.616-9.845-4.763-14.403 0 0-2.613-3.489-5.05-5.071a30.18 30.18 0 00-2.521-1.461 37.538 37.538 0 00-1.367-.67c-1.277-.596-2.584-1.067-3.901-1.506-.332 2.283-.851 4.529-1.454 6.733l-.17.756c-.428 1.316-.95 2.38-1.266 3.58-1.973 7.493-.035 16.14 4.258 22.056 1.969 2.714 4.224 5.113 6.369 7.635 0 0 3.414 4.01 5.066 6.649.274.424.294.44.428.618 2.44 3.207 6.455 3.812 10.563 4.177a85.206 85.206 0 011.877-3.521zm-48.396-1.314h.003c.05.012.189.04.516.104.446.08.893.151 1.342.212 3.532.482 7.045 1.206 10.459.714-.544.159-1.105.231-1.662.287a24.142 24.142 0 01-10.642-1.312l-.016-.005zm55.694-9.221c-17.829-45.325-27.776-95.777-27.776-148.932 0-23.584 1.959-46.636 5.695-68.943-7.661 30.932-11.768 63.629-11.768 97.442 0 26.933 2.605 53.159 7.538 78.348 2.761 1.93 5.24 4.224 7.212 7.031 4.483 6.38 4.833 16.375 6.334 24.796 1.276 7.108 2.909 14.159 5.533 20.678a78.795 78.795 0 012.806-4.593 53.045 53.045 0 014.426-5.827zm-133.536-13.107c4.825 5.384 10.706 9.403 16.293 13.552-5.176-3.233-10.277-6.729-14.568-11.481a35.41 35.41 0 01-1.727-2.069s-.053-.062.002-.002zm-21.82-10.565a37.972 37.972 0 00-2.715 3.544l-.049.071a131.136 131.136 0 007.543 7.539c-1.709-3.626-3.264-7.376-4.779-11.154zm95.356-6.318c5.556 3.506 11.118 7.175 15.308 12.888a59.62 59.62 0 012.695 4.054s-1.88-2.709-3.617-4.739c-4.21-4.918-9.508-8.632-14.388-12.201-.003-.002-.001-.004.002-.002zm-76.956-9.955c-4.911-.181-9.843 1.144-14.434 3.285 2.557 1.237 5.107 2.668 7.684 4.037 3.23 1.714 6.518 3.446 9.743 5.303-1.664-3.662-2.781-7.531-2.949-11.53-.016-.364-.028-.729-.044-1.095zm96.937 7.895c-9.704-22.351-23.897-42.012-42.265-55.071-5.553-3.95-9.791-9.849-13.313-16.335-3.114-.953-6.458-1.024-9.725-1.022-3.306.015-6.603.175-9.892.457 7.034 3.927 14.96 8.882 21.839 13.857 14.181 10.256 27.314 22.583 37.773 37.81l.165.24c-16.96-22.575-40.552-38.394-62.99-49.84-.938-.481-1.878-.956-2.817-1.427-3.819.484-7.63 1.103-11.44 1.818 8.481 2.105 16.542 6.535 23.588 12.016 3.641 2.831 7.113 5.945 10.477 9.215 6.358.769 12.569 2.706 17.899 7.105 6.812 5.624 12.815 12.549 18.778 19.488 7.259 8.447 14.244 17.232 21.13 26.09.143-1.48.403-2.951.793-4.401zm4.864-14.858c-2.485-8.344-5.986-16.349-10.291-23.628-6.541-11.053-15.042-20.628-24.434-28.461-8.085-6.744-16.346-13.193-24.652-19.531a535.94 535.94 0 01-1.505-1.128s.006.104.026.168a116.893 116.893 0 001.801 5.335c15.254 10.532 28.351 25.473 39.683 40.285 4.232 5.532 8.246 11.294 11.706 17.497l.137.249c-13.078-21.255-31.024-38.975-49.186-52.214 2.244 5.075 4.94 9.849 8.207 13.981.67.846 1.493 1.681 1.493 1.681 10.886 8.577 20.693 19.402 28.72 32.24 5.346 8.55 9.799 17.827 13.613 27.423.787-5.168.765-10.379-.358-15.706 0 0-.284-.327.141-.168 1.629.614 3.271 1.266 4.899 1.977zm-123.812 3.031a87.045 87.045 0 00-6.608 7.12l-.224.27a95.253 95.253 0 016.227 2.254 223.978 223.978 0 00-2.047-4.853l-.009-.02-.111-.252-.034-.077-.091-.204-.036-.081-.121-.274.212-.161c.438-.332.523-.382.802-.57a33.329 33.329 0 013.168-1.89c-.377-.418-.754-.838-1.128-1.262zm14.805-18.518c-3.599-1.898-7.445-2.788-10.204-2.693-.024.347-.039.698-.041 1.01-.037 6.382 1.032 12.863 2.875 18.916 3.674-1.095 7.502-1.625 11.305-1.678.164-.002.328-.002.491-.002.518.004 1.033.028 1.547.066-1.64-5.201-4.174-10.028-5.973-15.619zm705.955 10.904c7.662-30.93 11.769-63.627 11.769-97.441 0-192.679-133.365-349.108-297.632-349.108-28.827 0-56.703 4.818-83.074 13.804a261.387 261.387 0 0158.778-6.68c86.897 0 165.319 42.901 220.699 111.614 58.581 64.957 95.155 156.942 95.155 258.869 0 23.583-1.958 46.635-5.695 68.942zm-539.119-294.02a79.808 79.808 0 01-10.536 3.941l-.242.069c-24.854 39.554-42.768 85.47-51.626 135.266-5.456 38.574-5.925 78.096-1.062 116.529a411.725 411.725 0 006.206 36.049c-3.504-21.633-5.338-43.955-5.338-66.776 0-62.789 13.879-121.807 38.234-173.058 6.902-18.191 15.068-35.584 24.364-52.02zM147.154 749.326c1.34 3.072 3.166 5.836 5.07 8.469a65.173 65.173 0 01-1.362-10.454c-.09-1.935-.048-3.887.249-5.8 0 0 1.945-2.835 3.978-4.995 4.132-4.392 9.269-7.082 14.526-9.46a55.027 55.027 0 00-2.354-4.951c-7.214.691-14.755 3.796-20.09 10.096.333.978.528 1.674 1.194 2.727.507.804 1.475 1.77 1.475 1.77-1.421-.184-2.767-.917-3.944-1.942.228 2.783.895 5.503 1.077 8.31.059.895.083 1.794.07 2.692.622 1.367 1.13 3.023 2.236 4.461 0 0-.977-.327-2.125-.923zm404.977 2.73c-8.042-5.526-16.06-11.1-24.05-16.722-32.882-22.961-66.194-47.369-97.214-70.796-11.621-8.776-23.275-17.572-34.73-26.595-2.78-2.246-3.821-6.921-2.114-10.538 12.067-24.88 26.074-49.107 41.923-71.01 0 0 .433-.512.932-.353 1.022.56.405 1.4.182 2.126-4.927 15.859-10.838 31.412-17.148 46.484-.401.958-.879 1.91-.873 2.957.017 2.999 4.025 4.953 5.731 2.061 8.418-14.64 17.031-28.87 26.653-42.288 0 0 .498-.903 1.117-.773.71.148.67 1.28.364 2.274-4.923 15.865-10.833 31.421-17.14 46.497-.396.945-.871 1.882-.865 2.917.017 2.922 3.923 4.823 5.584 2.006 8.334-14.505 17.027-28.879 26.653-42.302 0 0 .539-.947 1.2-.808.758.159.763 1.341.433 2.412-4.925 15.871-10.835 31.429-17.144 46.508-.389.93-.861 1.853-.855 2.869.017 2.837 3.809 4.683 5.42 1.949 8.321-14.482 17.029-28.881 26.658-42.31 0 0 .578-.993 1.285-.845.809.17.854 1.406.502 2.551-4.927 15.877-10.84 31.438-17.148 46.519-.384.914-.853 1.823-.846 2.822.015 2.758 3.714 4.576 5.278 1.853 8.31-14.646 17.008-28.85 26.639-42.284 0 0 .619-1.04 1.373-.883.86.181.952 1.468.573 2.698-4.927 15.883-10.836 31.448-17.145 46.533-.377.901-.842 1.789-.835 2.771.015 2.628 3.488 4.373 5.029 1.886 8.553-14.146 16.832-28.585 26.463-42.064.428-.599.861-1.284 1.5-1.282.988.003 1.346 1.336.87 2.887-4.944 15.938-10.834 31.442-17.15 46.545-.369.884-.831 1.754-.824 2.714.015 2.523 3.354 4.203 4.836 1.814 8.295-13.723 16.695-28.336 26.162-41.645.18-.254.363-.509.545-.763 1.035-1.441 3.311-1.183 2.312 2.065-4.933 15.909-10.836 31.45-17.153 46.557-.367.877-.829 1.742-.813 2.692.039 2.427 3.258 3.993 4.659 1.678 7.753-13.166 15.691-26.637 24.499-39.28.083.32.013.044.162.66l.228.979c.177.793.054.23.215.994l.198.987c.148.771.046.227.187 1l.171.992c.143.874.03.167.128.801.113.738.031.177.121.8.148 1.031.047.282.167 1.199l.036.272c-4.202 12.532-9.048 24.936-14.079 36.97-.354.848-.807 1.682-.801 2.599.016 2.319 3.08 3.86 4.441 1.667 3.875-6.417 7.804-13.074 11.861-19.709.042.722.084 1.402.128 2.025.078 1.093.156 2.192.232 3.297a724.231 724.231 0 00-9.69 16.333c-2.237 3.782-8.133 3.261-9.622-1.35-.795-2.462.204-5.075 1.302-7.702 4.896-11.74 9.484-23.749 13.616-35.853l.058-.168c-7.217 10.684-14.037 21.746-20.501 33.044-1.654 2.89-4.623 4.902-7.362 3.438-2.749-1.47-3.786-5.646-2.306-9.154 5.291-12.543 10.225-25.42 14.666-38.491l.092-.274c-7.653 11.287-14.738 22.951-21.684 34.992-2.15 3.632-7.811 3.129-9.239-1.297-.775-2.4.229-4.955 1.293-7.499 4.995-11.979 9.646-24.169 13.857-36.564l.357-1.058c-7.535 11.073-14.657 22.583-21.414 34.393-1.599 2.791-4.439 4.768-7.096 3.348-2.641-1.411-3.646-5.389-2.201-8.812 5.35-12.685 10.403-25.879 14.9-39.182l.389-1.164c-7.773 11.386-15.001 23.062-21.86 35.055-1.572 2.747-4.363 4.697-6.966 3.306-2.594-1.385-3.554-5.328-2.153-8.65.182-.431.363-.862.543-1.294 5.443-13.016 10.479-26.242 14.967-39.733-7.859 11.475-15.28 23.446-22.246 35.625-1.65 2.882-4.615 4.841-7.337 2.973 0 0-3.425-3.79-1.93-7.495 5.836-14.032 11.266-28.011 16.021-42.37l.003-.011c-8.01 11.612-15.537 23.786-22.612 36.158-1.51 2.638-4.154 4.573-6.691 3.261-2.536-1.312-3.502-5.117-2.12-8.394 5.793-13.742 11.171-27.849 15.905-42.219l.025-.077c-8.137 11.757-15.782 24.115-22.97 36.689-1.534 2.685-4.287 4.583-6.798 3.112-2.373-1.392-3.194-5.018-1.872-8.151 5.905-14.015 11.308-28.223 16.071-42.761l.005-.011c-14.2 20.509-26.922 42.365-38.22 65.18-1.594 3.22-1.821 7.373.95 9.617 27.468 21.658 54.825 42.017 84.144 63.023a2750.412 2750.412 0 0047.207 33.07l.841.576a2591.095 2591.095 0 0022.734 15.269l.198 3.246.023.389zm-384.533-4.585a43.169 43.169 0 01-.497-2.005 134.887 134.887 0 016.085-2.131 45.786 45.786 0 01-.472-2.314 33.916 33.916 0 01-.423-3.28 30.976 30.976 0 00-.617-4.161c-3.953 2.209-7.755 4.682-10.965 8.288 1.535.436 3.018 1.122 4.47 1.814 0 0-3.435-.078-5.543.225 2.768.55 5.495 1.833 7.962 3.564zm4.429-30.557c3.024 6.027 5.751 12.364 5.729 19.113-.06 1.928.064 3.843.349 5.727 6.106-1.957 12.234-4.026 18.116-7.453-7.68-6.385-15.249-12.849-24.194-17.387zm41.383 14.794c-9.797-8.198-20.386-15.267-32.453-17.848-3.171-.678-6.392-1.023-9.625-1.089 7.073 3.228 12.964 9.536 18.464 14.734a457.603 457.603 0 016.805 6.574c.334-.198.666-.401.998-.607 2.832-1.769 6.022-2.177 9.189-2.157 2.203.03 4.421.143 6.622.393zm9.074-43.531c-4.029-5.786-8.666-10.928-13.705-15.486-11.4-10.31-27.417-18.508-40.689-21.482a60.286 60.286 0 00-5.268-.926c-3.252-.428-6.539-.587-9.81-.581-12.516.054-24.963 2.52-36.979 6.71l-.134.048c.266.263.531.528.797.793 12.612 12.665 23.615 27.224 32.748 43.482a63.691 63.691 0 006.938 9.94 57.034 57.034 0 005.82 5.87 54.11 54.11 0 011.642-.205 241.733 241.733 0 00-3.392-5.157 90.151 90.151 0 00-2.957-4.174s-.734-.081.5-.415c8.14-2.21 16.626-2.791 25.088-3.538 4.662-.412 9.301-.704 13.994-.793.321-4.092.902-8.152 1.873-12.15-13.911-10.598-28.828-19.939-44.978-23.406 0 0-.832-.153-.224-.058 16.221 2.595 31.503 10.735 45.881 20.896 1.351-4.675 3.298-9.147 5.953-12.961.008-.02.021-.031.039-.029.064.009.13.023.197.043.894.229 1.876 1.32 2.957 2.181a433.206 433.206 0 0113.709 11.398zm-18.083 6.9a71.046 71.046 0 00-1.48 7.182c3.814.064 7.638.294 11.251 1.127a157.952 157.952 0 01-1.497-3.251c-2.006-4.477-3.746-9.152-5.027-13.972a44.834 44.834 0 00-1.678 3.933 34.366 34.366 0 002.027 5.063s-1.256-1.587-2.578-3.496a50.797 50.797 0 00-.762 2.478 12.17 12.17 0 001.217 1.705s-.622-.278-1.473-.769zm343.171-14.935c.17 2.487.339 5 .507 7.535-.397.963-.798 1.926-1.198 2.885-.832 1.989-.968 4.728 1.087 5.209.223.053.438.056.645.018l.067 1.014.164 2.543c-2.319.142-4.743-1.183-5.631-3.935-.807-2.498.195-5.152 1.306-7.809a588.329 588.329 0 003.053-7.46zm58.761-3.753c.692-.986 1.386-1.968 2.086-2.944 0 0 1.429-1.818 2.741-.93 1.405.952.621 3.484-.041 5.571a476.265 476.265 0 01-6.533 19.129c.584-7.137 1.166-14.095 1.747-20.826zm-30.807-7.333c4.995.133 9.534 4.883 9.984 11.1.552 7.63-9.451 17.103-16.978 8.544a10.805 10.805 0 01-1.175-1.619c-3.738-6.272-1.148-17.729 7.794-18.024.126-.002.251-.003.375-.001zm6.974 11.305c.298-5.507-4.25-10.724-9.436-9.736-3.694.706-6.857 4.597-7.084 9.312-.237 4.943 3.111 9.797 7.518 10.402 4.518.62 9.295-4.02 9.002-9.748 0 0-.006-.106 0-.23zm-351.572-17.145a32.656 32.656 0 001.815-2.194s2.25-3.334 3.365-6.212c.54-1.388.991-2.82 1.358-4.282.227-.905.419-1.821.578-2.745 1.248-7.245.042-15.014-3.495-21.281-.851-1.509-1.957-2.864-3.098-4.092-.148-.164-.148-.164-.296-.332-3.446-3.928-6.45-8.296-9.244-12.927-.044-.073-.087-.144-.129-.217-.058-.093-.13-.241-.137-.227-2.708 5.359-4.975 11.158-5.553 17.324 0 0-.312 5.287-.049 8.926.259 3.573.828 7.113 1.759 10.526 1.56 5.715 4.678 11.14 8.333 15.122.549.596 2.292 2.25 3.763 3.348-3.909-12.89-7.495-26.059-5.885-39.174 0 0 .039-.377.005 0-1.144 12.842 2.55 25.67 6.91 38.437zm387.796-73.939c-.003.001.044-.106-.201.488 0 0-1.55 3.744-2.449 7.398-.578 2.35-.969 4.76-1.236 7.189 0 0-.006-.002-.101 1.004 0 0-.009.025-.112 1.297 0 0-.006.006-.079 1.077 0 0-.007.001-.069 1.114 0 0-.006.022-.059 1.152 0 0-.007.046-.049 1.193 0 0-.006.064-.037 1.236 0 0-.012.438-.023.937-.011.576-.008.386-.018.998-.012.786.533-1.4-.205 2.738-.363 2.036-1.279 3.783-2.432 5.269-.603.778-.007-.019-.645.857 0 0-.083.075-.781 1.127 0 0-.083.086-.726 1.157 0 0-.09.114-.678 1.188 0 0-.1.148-.631 1.219 0 0-.092.148-.584 1.248 0 0-.103.194-.544 1.28 0 0-.098.203-.503 1.306 0 0-.105.254-.463 1.336 0 0-.1.254-.477 1.535 0 0-.006-.001-.246.867 0 0-.006-.002-.232.875 0 0-.005-.004-.218.885 0 0-.006-.004-.207.893 0 0-.005-.002-.195.899 0 0-.005.001-.182.909 0 0-.005-.002-.17.915 0 0-.01.006-.192 1.106 0 0-.016.059-.176 1.113 0 0-.167 1.162-.159 1.097-.218 1.608-.135.955-.293 2.288 0 0-.005-.002-.126 1.133 0 0-.005 0-.117 1.137 0 0-.012.073-.14 1.518 0 0-.014.112-.125 1.519 0 0-.043.554-.085 1.124-.049.68-.033.453-.08 1.149a64.96 64.96 0 00-.073 1.121l-.106 1.707a49.805 49.805 0 00-1.931-1.302c-.607-.4-1.218-.798-1.827-1.195l-1.167-.762a63.758 63.758 0 00-.539-.352c.835-12.205 2.268-24.227 9.065-34.039.916-1.321 2.175-1.968 2.223-5.645.132-8.718 1.145-17.521 4.166-25.418 1.005-2.628 2.168-5.167 3.397-7.659 7.446-1.053 14.295-5.589 19.383-12.13 14.264-18.345 14.549-50.021-.55-68.598-5.652-6.952-13.475-11.479-21.728-11.662-.217-.001-.432-.003-.648-.001-8.35.109-16.399 4.673-22.242 12.034-14.495 18.265-14.805 50.205.207 68.806.395.49.801.965 1.214 1.433 3.897 18.7 5.097 38.872-1.591 56.816-1.905 5.115-4.487 9.781-7.549 14.021-.11-.119-.117-.13-.117-.13-.67-.737-.68-.76-.68-.76l-.113-.128.06-.083c.324-.451.064-.084.459-.654.257-.369.1-.141.343-.497l.447-.671c.41-.621.198-.296.561-.864.514-.808.306-.484.547-.881l.428-.713c.378-.639.197-.332.429-.736l.416-.74c.365-.662.19-.344.414-.763l.404-.765c.29-.565.114-.218.4-.79l.388-.793c.278-.583.1-.205.385-.819l.373-.82c.266-.603.098-.218.369-.847 0 0 .048-.104.357-.855 0 0 .051-.113.349-.87 0 0 .031-.067.339-.884 0 0 .035-.075.332-.899 0 0 .034-.083.321-.914 0 0 .036-.092.31-.93 0 0 .038-.103.301-.945 0 0 .041-.112.291-.962 0 0 .041-.126.281-.976 0 0 .042-.137.268-.992 0 0 .026-.08.258-1.009 0 0 .028-.095.247-1.023 0 0 .029-.11.233-1.042 0 0 .033-.126.223-1.058 0 0 .033-.141.211-1.075 0 0 .032-.155.197-1.091 0 0 .021-.089.184-1.107 0 0 .022-.108.172-1.126 0 0 .023-.124.159-1.144 0 0 .023-.146.143-1.16 0 0 .025-.167.131-1.179l.059-.591c.051-.544.034-.354.084-.906.103-1.17.022-.176.12-1.528l.059-.925c.072-1.213.022-.237.083-1.577l.037-.952c.042-1.256.017-.296.044-1.623l.014-.981c.009-1.298.008-.369.001-1.672l-.01-1.009c-.022-1.34-.002-.426-.039-1.72 0-.007-.036-1.031-.038-1.04-.036-.903-.026-.649-.047-1.058l-.035-.706c-.036-.65-.024-.422-.064-1.076-.056-.923-.044-.665-.073-1.084 0 0-.053-.718-.055-.725-.053-.671-.033-.435-.09-1.108-.08-.936-.061-.682-.102-1.113l-.071-.747c-.072-.687-.046-.448-.12-1.137-.102-.943-.078-.696-.13-1.144l-.092-.768c-.088-.707-.056-.458-.148-1.166-.137-1.052-.098-.729-.158-1.177 0 0-.111-.782-.113-.787-.106-.728-.068-.474-.177-1.199-.161-1.055-.116-.744-.19-1.206l-.131-.81c-.127-.747-.081-.486-.209-1.23-.179-1.038-.134-.758-.221-1.239l-.153-.832c-.143-.767-.092-.497-.24-1.261-.011-.06-2.591-3.289-4.062-5.323-7.962-11.006-11.391-25.851-9.78-40.951 1.036-9.721 4.039-19.271 9.981-27.497 5.153-7.135 12.34-12.36 20.274-14.127 2.015-.45 4.079-.731 6.162-.658 9.81.02 19.263 5.428 26.354 14.679 10.702 13.964 13.747 35.42 10.232 52.314-3.607 17.333-15.106 33.178-30.23 37.05 0 0-.114-.111-.426.576-.168.371.049-.11-.207.464l-.388.89-.184.43zm-81.337-86.205c5.553.073 10.938 3.072 14.861 7.897 10.851 13.339 10.424 38.406-3.046 50.061-9.704 8.396-25.09 4.64-31.589-11.011-6.481-15.612-2.466-37.636 11.722-44.977 2.527-1.308 5.308-1.981 8.052-1.97zm75.318 0c5.553.073 10.94 3.072 14.863 7.897 10.849 13.339 10.424 38.406-3.048 50.061-9.703 8.396-25.088 4.64-31.587-11.011-6.483-15.612-2.466-37.636 11.72-44.977 2.527-1.308 5.309-1.981 8.052-1.97zm-74.159 2.482c-.514-.004.106-.024-.793.02-.268.013.176-.022-.52.036-.27.024.145-.023-.517.057-.268.031.154-.031-.513.073-.268.042.137-.033-.506.092-.267.051.146-.041-.5.107-.264.061.154-.047-.494.125-.265.071.127-.044-.488.14-.262.079.135-.051-.482.158-.261.089.142-.059-.476.173-.259.097.118-.055-.469.188-.256.106.124-.062-.465.205-.252.115.125-.068-.458.219-.254.127.148-.084-.45.234-.248.132.129-.08-.446.249-.243.141.128-.084-.437.265-.243.148.104-.075-.432.276-.24.159.109-.082-.427.292-.234.165.111-.084-.418.307 0 0-.185.126-.811.662-.222.19.103-.099-.394.351-.222.199.099-.102-.388.364-.217.206.098-.107-.381.374-.211.214.097-.108-.373.389-.208.218.101-.12-.365.401-.204.226.098-.125-.359.411-.199.234.097-.126-.349.424-.194.239.094-.13-.342.435-.19.245.092-.134-.334.446-.185.252.091-.135-.325.457-.181.257.087-.139-.318.468-.175.263.085-.143-.309.478-.171.271.083-.146-.299.488-.167.276.08-.148-.291.499-.162.282.078-.151-.282.508-.158.287.075-.153-.273.517-.153.295.062-.138-.265.527-.146.3.07-.159-.254.537-.142.304.059-.144-.246.545-.107.245.047-.099-.118.274l-.22.537c-.248.6.025-.06-.232.587l-.2.55c-.227.618.022-.062-.212.603l-.18.565c-.204.634.02-.062-.189.619 0 0-.223.79-.202.729-.475 1.726-.041-.208-.538 2.343-.076.393.022-.162-.142.792-.028.166-.168 1.199-.176 1.257-.081.682.03-.519-.124 1.166a104.1 104.1 0 00-.089 1.289c-.034.705-.01-.371-.045 1.191-.003.15-.013.47 0 1.342.001.155-.017 6.06-.017 6.06.01.484-.007-.146.007.364l.027.97c.028.477-.013-.143.018.36l.063.959c.045.472-.017-.138.032.357l.136 1.274c.075.521-.039-.211.072.51l.143.932c.097.522.003.049.09.5l.181.916c.117.51.005.051.111.492l.216.897c.138.495.008.049.131.479l.253.879c.156.48.011.049.149.466l.287.855c.218.587-.033-.027.277.738l.337.819c.199.446.017.051.193.433l.369.792c.217.429.019.049.211.418l.399.76c.233.412.021.048.225.403l.431.729c.247.391.023.045.241.382l.458.696c.265.373.025.046.257.365l.486.66c.279.353.027.044.271.346l.515.623c.291.331.028.04.285.323l.539.587c.305.309.031.038.299.302l.564.544c.475.426.109.121.612.541l.597.49c.496.373.103.099.645.479l.628.429c.519.324.118.093.676.415l.659.366c.538.27.119.08.708.347l.687.301c.553.214.118.066.737.276l.966.289c.57.137.12.048.77.174l.75.133c.396.051.06.013.404.051l.771.075c.396.02.064.008.409.02l.769.011c.574-.013.131.015.796-.031l.764-.069c.565-.073.124.002.787-.114l.757-.149c.555-.13.118-.011.774-.194l.748-.227c.489-.168-.085.053.636-.232l.977-.42c.47-.225-.039.029.497-.243l.955-.521c.83-.494.143-.057.953-.594l.92-.649c.721-.548.235-.157.91-.72l.877-.771c.679-.638.199-.165.862-.841l.824-.888c.394-.451.241-.267.506-.596 0 0 .402-.508.575-.738.433-.581.157-.199.564-.779l.538-.796c.4-.618.135-.194.525-.834 0 0 .491-.839.498-.853.376-.671.144-.243.483-.889l.382-.751c.291-.599.075-.142.369-.778l.282-.627c.318-.733.12-.26.407-.97l.318-.819c.28-.757.084-.207.36-1.013.009-.025.266-.848.269-.857.236-.793.083-.256.299-1.056l.228-.888c.17-.706.054-.207.21-.909l.153-.729c.168-.859.07-.329.206-1.117 0 0 .113-.742.113-.749.123-.888.055-.354.145-1.146 0 0 .095-.952.097-.961.065-.764.028-.28.075-.974l.045-.782c.037-.821.025-.499.036-.989.04-1.884.023-.426-.017-1.795l-.033-.787c-.036-.693-.017-.362-.045-.786l-.061-.777c-.061-.682-.031-.356-.075-.775l-.087-.762c-.109-.857-.023-.265-.167-1.139-.118-.72-.031-.208-.167-.93l-.146-.733c-.137-.645-.072-.338-.161-.733l-.173-.716c-.157-.63-.082-.329-.185-.716l-.195-.698c-.179-.615-.093-.322-.21-.699l-.164-.509c-.205-.596-.107-.311-.239-.679l-.248-.659c-.401-1.027-.098-.287-.533-1.3l-.279-.628c-.444-.967-.062-.172-.595-1.236l-.309-.592c-.484-.908-.015-.073-.653-1.168l-.336-.557c-.538-.872-.151-.267-.708-1.095l-.359-.519c-.574-.806-.117-.188-.759-1.018l-.384-.48c-.606-.737-.065-.108-.805-.938l-.405-.439c-.648-.663.003-.027-.859-.837l-.43-.387c-.646-.57-.117-.124-.894-.749l-.788-.593c-.619-.444-.206-.159-.82-.557-.202-.132.122.071-.352-.221-.204-.128.114.062-.354-.212-.202-.121.119.062-.357-.203-.305-.172-.028-.022-.479-.258-.197-.102.102.048-.362-.181-.198-.098.109.048-.364-.173-.198-.092.101.042-.367-.163-.204-.089.108.04-.367-.153-.206-.084.113.04-.37-.145-.207-.078.105.035-.372-.133-.207-.073.111.033-.372-.126-.214-.07.106.029-.376-.115-.213-.064.114.027-.377-.106-.215-.059.106.023-.377-.095-.217-.053.111.02-.38-.086-.217-.048.103.016-.38-.077-.222-.044.109.015-.382-.068-.223-.036.115.015-.383-.056-.225-.031.106.009-.385-.044 0 0-1.314-.068-1.273-.064a.693.693 0 00-.13 0zm75.319 0c-.513-.004.105-.024-.794.02-.268.013.177-.022-.52.036-.269.024.147-.023-.517.057-.268.031.154-.031-.511.073-.268.042.135-.033-.507.092-.266.051.145-.041-.5.107-.265.061.155-.047-.494.125-.266.071.128-.044-.487.14-.262.079.134-.051-.483.158-.261.089.143-.059-.476.173-.258.097.117-.055-.47.188-.256.106.125-.062-.463.205-.254.115.123-.068-.458.219-.254.127.146-.084-.452.234-.246.132.13-.08-.444.249-.243.141.128-.084-.439.265-.242.148.104-.075-.432.276-.24.159.111-.082-.425.292-.235.165.11-.084-.418.307 0 0-.185.126-.812.662-.222.19.103-.099-.395.351-.22.199.101-.102-.388.364-.215.206.1-.107-.38.374-.212.214.096-.108-.373.389-.207.218.102-.12-.366.401-.204.226.1-.125-.357.411-.199.234.097-.126-.35.424-.195.239.095-.13-.342.435-.19.245.092-.134-.334.446-.186.252.09-.135-.325.457-.18.257.088-.139-.318.468-.176.263.086-.143-.308.478-.171.271.083-.146-.301.488-.166.276.081-.148-.289.499-.163.282.076-.151-.284.508-.156.287.076-.153-.273.517-.152.295.064-.138-.263.527-.148.3.069-.159-.256.537-.141.304.06-.144-.244.545-.109.245.047-.099-.119.274l-.219.537c-.248.6.023-.06-.232.587l-.201.55c-.226.618.021-.062-.211.603l-.181.565c-.205.634.021-.062-.19.619 0 0-.222.79-.201.729-.476 1.726-.04-.208-.537 2.343-.077.393.02-.162-.142.792-.028.166-.17 1.199-.176 1.257-.081.682.03-.519-.126 1.166-.016.17-.084 1.23-.087 1.289-.035.705-.011-.371-.046 1.191-.003.15-.014.47-.001 1.342.003.155-.016 6.06-.016 6.06.011.484-.008-.146.006.364l.027.97c.028.477-.013-.143.02.36l.061.959c.047.472-.017-.138.034.357l.136 1.274c.075.521-.039-.211.07.51l.143.932c.097.522.003.049.092.5l.179.916c.119.51.007.051.113.492l.216.897c.137.495.008.049.131.479l.252.879c.155.48.01.049.148.466l.289.855c.218.587-.035-.027.277.738l.337.819c.199.446.017.051.193.433l.367.792c.217.429.021.049.211.418l.4.76c.232.412.021.048.226.403l.429.729c.249.391.023.045.243.382l.458.696c.263.373.025.046.257.365l.486.66c.279.353.026.044.271.346l.513.623c.293.331.029.04.286.323l.539.587c.306.309.03.038.3.302l.564.544c.475.426.107.121.612.541l.597.49c.495.373.101.099.645.479l.628.429c.517.324.117.093.676.415l.659.366c.536.27.117.08.706.347l.688.301c.554.214.119.066.736.276l.967.289c.571.137.12.048.77.174l.751.133c.394.051.058.013.404.051l.769.075c.398.02.064.008.409.02l.771.011c.572-.013.131.015.795-.031l.765-.069c.564-.073.124.002.785-.114l.757-.149c.555-.13.119-.011.776-.194l.748-.227c.488-.168-.087.053.634-.232l.978-.42c.469-.225-.04.029.498-.243l.953-.521c.831-.494.145-.057.954-.594l.919-.649c.723-.548.237-.157.911-.72l.876-.771c.679-.638.199-.165.862-.841l.825-.888c.395-.451.24-.267.507-.596 0 0 .402-.508.575-.738.433-.581.157-.199.562-.779l.539-.796c.401-.618.134-.194.524-.834l.5-.853c.376-.671.143-.243.481-.889l.382-.751c.293-.599.075-.142.371-.778l.28-.627c.32-.733.12-.26.407-.97l.318-.819c.28-.757.084-.207.361-1.013.01-.025.267-.848.27-.857.235-.793.083-.256.299-1.056l.228-.888c.169-.706.054-.207.208-.909.004-.009.152-.72.153-.729.17-.859.07-.329.207-1.117l.114-.749c.122-.888.053-.354.145-1.146l.095-.961c.067-.764.028-.28.076-.974l.044-.782c.037-.821.025-.499.036-.989.042-1.884.023-.426-.016-1.795l-.032-.787c-.036-.693-.019-.362-.047-.786l-.061-.777c-.061-.682-.031-.356-.073-.775l-.089-.762c-.107-.857-.023-.265-.167-1.139-.118-.72-.029-.208-.165-.93l-.148-.733c-.135-.645-.07-.338-.16-.733l-.172-.716c-.159-.63-.082-.329-.185-.716l-.197-.698c-.179-.615-.093-.322-.208-.699l-.165-.509c-.206-.596-.108-.311-.24-.679l-.248-.659c-.399-1.027-.098-.287-.533-1.3l-.279-.628c-.444-.967-.061-.172-.595-1.236l-.309-.592c-.484-.908-.014-.073-.652-1.168l-.335-.557c-.539-.872-.153-.267-.708-1.095l-.361-.519c-.574-.806-.117-.188-.757-1.018l-.385-.48c-.605-.737-.066-.108-.804-.938l-.405-.439c-.649-.663.003-.027-.859-.837l-.43-.387c-.647-.57-.117-.124-.896-.749 0 0-.81-.611-.788-.593-.617-.444-.204-.159-.818-.557-.203-.132.121.071-.352-.221-.206-.128.112.062-.354-.212-.203-.121.118.062-.357-.203-.305-.172-.03-.022-.48-.258-.196-.102.103.048-.361-.181-.198-.098.107.048-.365-.173-.199-.092.1.042-.366-.163-.204-.089.106.04-.368-.153-.205-.084.112.04-.371-.145-.205-.078.105.035-.37-.133-.208-.073.11.033-.374-.126-.214-.07.107.029-.374-.115-.214-.064.114.027-.377-.106-.215-.059.104.023-.379-.095-.215-.053.112.02-.379-.086-.216-.048.103.016-.38-.077-.223-.044.108.015-.381-.068-.223-.036.113.015-.384-.056-.224-.031.106.009-.385-.044 0 0-1.313-.068-1.274-.064a.684.684 0 00-.129 0zm-288.869-54.016a451.45 451.45 0 00-19.409 38.829 363.484 363.484 0 0121.048-35.024c-.422-1.001-.871-2.039-1.301-3.099-.114-.234-.226-.47-.338-.706zm-48.835 21.123c.037-.194.071-.389.107-.585.424-2.43.747-4.87.972-7.31a91.51 91.51 0 00.142-14.224c-.573-8.145-2.429-16.103-5.115-23.616-5.631-15.744-15.621-30.657-27.274-39.68-9.678-7.491-20.76-12.522-31.96-15.684 0 0-.218-.208-.137.077 4.235 15.106 6.717 30.995 7.365 46.539a61.705 61.705 0 001.334 10.294c1.438 6.651 4.275 13.428 7.865 19.289 6.991 11.413 17.477 19.915 29.09 23.829 4.45 1.501 9.091 2.19 13.742 2.144-9.113-27.207-21.31-53.18-37.601-75.316 0 0-.736-.945-.055-.108 17.497 21.46 31.646 47.217 41.525 74.351zm48.16-2.081c1.345-.395 2.649-.874 3.956-1.362l.133-.049c8.244-3.372 16.171-8.281 22.531-14.95 4.374-4.587 8.063-10.494 8.537-17.075 0 0 .796-2.383.334-2.058-4.287 3.007-8.955 5.024-14.185 5.834-3.001.484-5.589 2.632-8.123 4.68l-.079.066a59.123 59.123 0 00-6.27 6.216c-1.341 1.544-2.642 3.165-3.791 4.916l-.004.007-.011.019c-2.551 4.625-4.014 9.358-3.088 13.196.162-.044.33-.091.501-.14l-.441.7zm3-14.372c.24-.402.483-.799.726-1.188 2.885-4.62 6.265-8.977 10.16-12.389.287-1.26.734-3.381.985-5.331.157-1.214.269-2.438.327-3.665.355-7.495-1.843-15.105-4.671-21.859-.715-1.709-1.518-3.39-2.613-4.783 0 0-3.006 2.86-5.538 5.035-1.439 1.248-2.887 2.518-3.981 4.207 0 0-.38.506-.345 1.288.123 2.925.805 5.777 1.403 8.681 0 0 1.13 4.48 1.32 7.647.108 1.797.017 3.741-.997 5.161-1.242 1.744-.65.788-.885 2.105-.391 2.175-.07 4.473.576 6.759.416 1.116.89 2.244 1.376 3.362l-.135.244c.099.255.201.509.305.762.48.997.961 1.977 1.404 2.949l.098-.144c.168.391.33.778.485 1.159zm42.053-33.544l3.036-4.155 10.404-14.511s.353-.686 1.865-.909c5.556-.855 10.925-3.245 15.515-7.303 10.91-9.638 17.278-24.802 23.892-37.659 0 0 .536-2.14.876-3.781 2.048-9.936 3.301-20.141 3.822-30.264-8.355 24.069-20.189 46.075-38.358 61.614 17.369-16.426 28.637-40.723 36.17-64.421a452.705 452.705 0 002.473-8.036c-.003-.008-.008-.013-.011-.019-7.276 22.872-20.009 42.967-37.287 58.696-4.048 3.687-8.223 7.165-12.365 10.697l-.4.344c.517-.486 1.036-.971 1.553-1.455 17.367-16.194 33.039-34.018 42.418-59.82a202.462 202.462 0 002.625-7.732c-1.032.336-2.024.807-2.926 1.511 0 0-2.37 2.091-4.607 3.874-6.107 4.869-12.757 8.87-19.81 11.414-4.118 1.484-8.474 2.377-12.071 5.007-6.325 4.626-10.581 12.625-14.322 20.114-5.255 10.516-8.915 22.191-11.536 33.818 0 0-.109.691-1.695 1.78-7.904 5.484-14.026 13.838-18.536 23.362 1.646 7.14 2.038 14.613.816 21.316a55.744 55.744 0 01-1.226 5.255 31.763 31.763 0 012.977-2.084c2.571-1.584 5.608-1.833 8.325-3.28 7.149-3.811 12.828-10.779 18.474-17.651l.002.188a62.068 62.068 0 01-.093 4.09zm-4.569-14.308c-4.864 11.71-12.553 21.531-20.76 29.242 0 0 .664-.689 1.3-1.362 7.455-7.928 14.206-16.94 19.075-27.066.264-.554.455-.982.385-.814zm-1.246 29.053c54.802-63.071 129.879-101.989 212.645-101.989 41.567 0 81.194 9.816 117.287 27.578-39.144-22.234-83.059-34.704-129.435-34.704-42.893 0-83.679 10.666-120.534 29.859a294.784 294.784 0 00-23.545 17.161c-6.947 11.996-14.605 23.216-26.649 27.984a30.546 30.546 0 01-5.074 1.509 330.396 330.396 0 00-19.592 22.916c-.482 1.97-1.238 3.8-2.409 5.359-1.035 1.376-2.02 2.618-2.694 4.327zm5.955-27.38c-2.493 6.153-5.566 11.989-10.034 16.45-1.641 1.639-3.367 3.161-5.072 4.72 3.546-3.695 7.169-7.279 10.047-11.78 1.846-2.888 3.454-6.004 4.94-9.142.066-.139.162-.353.119-.248zm-29.772 3.331c4.208-9.039 9.905-16.912 17.305-22.72a48.954 48.954 0 011.819-1.354c3.616-18.141 9.196-35.861 19.136-50.79a29.883 29.883 0 0113.73-11.201c1.999-.81 3.992-1.645 5.96-2.55a1136.868 1136.868 0 0011.238-27.461 357.959 357.959 0 001.738-4.527c-17.306 16.757-35.151 33.635-44.423 59.564a122.7 122.7 0 00-1.074 3.149c8.006-28.408 28.763-50.499 46.657-68.417-15.852 12.905-30.18 28.784-40.836 48.065-5.024 9.092-9.205 18.784-12.489 28.962 8.758-30.793 27.19-58.354 48.372-77.138-6.139.989-12.214 2.588-17.908 5.228-4.013 1.861-7.359 5.218-10.449 8.809-7.582 8.809-13.876 19.031-18.588 30.413-5.354 12.93-7.664 27.284-11.156 40.524-1.594 6.041-4.494 11.45-7.434 16.785l-.311.565c-2.199 4.079-4.319 8.224-6.209 12.513 1.224 1.444 2.179 3.29 2.815 4.951a61.127 61.127 0 012.107 6.63zm18.088-84.567c-2.601 3.083-5.56 5.764-8.835 7.906.891 3.926 1.951 7.813 3.032 11.691.186-.864.38-1.725.586-2.582a141.689 141.689 0 015.217-17.015zm8.906-18.866c1.91-7.69 2.265-16.137.224-24.617-.271-1.124-2.251-6.475-3.46-9.12-4.072-8.971-7.115-18.601-9.315-28.418 0 0 .035-.223-.085-.088-5.474 6.234-10.391 13.252-14.003 21.143-4.973 10.867-6.574 24.323-5.667 36.787.664 9.138 3.487 18.17 7.621 25.621.809 1.458 2.776 4.539 4.621 6.853l.098-.058c-1.045-5.097-1.883-10.31-2.234-15.741-1.151-17.819 1.907-35.875 6.379-52.61l-.094.42c-4.778 21.33-6.71 43.765-2.187 64.952.109.517.223 1.034.339 1.55 1.56-1.06 3.611-2.555 5.167-4.052a39.767 39.767 0 003.95-4.439c2.43-6.331 5.313-12.415 8.646-18.183zm68.554 15.768c3.345-8.107 5.298-16.751 5.224-25.445-.053-6.254-3.095-11.93-4.724-17.55a91.26 91.26 0 01-1.834-7.541l-.045.019c-.899.374-1.799.742-2.698 1.115-3.082 1.299-5.93 3.05-8.674 4.994-1.532 5.571-4.131 10.823-6.483 16.174a1088.11 1088.11 0 01-10.43 23.009 46.4 46.4 0 002.189-1.491c3.94-2.851 7.543-6.382 11.128-9.679 5.152-4.678 13.524-3.532 17.065-7.56l.016.217c.583 7.871.196 15.823-.734 23.738zm-5.452-37.819c-4.986 5.791-9.791 11.802-13.736 18.756-.456.804-.907 1.616-1.36 2.423 2.946-6.073 6.335-11.676 10.989-16.846a150.173 150.173 0 013.297-3.505l.415-.426a27.1 27.1 0 01.395-.402zm-11.604-11.591c-.37-2.694-.901-5.356-1.521-7.966 0 0-2.705 2.557-3.956 3.743-3.341 3.15-7.134 5.473-10.735 8.291 1.185-.31 2.365-.606 3.53-.893 3.299-.815 6.627-1.475 9.978-1.894 0 0 1.058-.12 1.516-.162.398-.371.794-.744 1.188-1.119zm256.762-66.182c-.034 1.185-.098 4.655.228 7.172 1.26 9.73 6.271 18.734 13.32 24.46.682.546 1.028.773 1.567 1.139 2.489 1.688 5.176 2.962 7.973 3.737 0 0 3.635.682 5.862.643.244-.002.244-.001.487-.001 6.508.049 13.082 1.122 19.279 2.741l.095.025c-1.903-8.885-4.897-17.559-10.31-24.281-4.17-5.175-9.043-9.603-14.494-12.747-2.919-1.685-7.684-3.438-12.064-4.105l-.129-.018a35.178 35.178 0 00-4.103-.227c-2.874.019-4.738.353-6.957.858-.046.009-.093.022-.14.032a174.14 174.14 0 0013.398 9.754c7.415 4.876 15.939 8.747 20.477 16.531-4.396-7.221-12.315-10.794-19.632-15.356a180.56 180.56 0 01-14.857-10.357zm-99.531-39.343l-.001.011.005-.01-.004-.001zm31.56-8.535c.687.263 1.383.48 2.083.654.265.037.522.068.752.104.265.042.532.077.796.108 5.504.62 11.192-1.78 15.387-6.345 1.971-2.171 3.016-4.2 3.925-6.558.473-1.229.764-2.593.959-3.956 0 0 1.342-6.744 3.215-12.007 0 0-.441-.05-.716-.05-4.719.026-9.269 1.179-13.837 4.198l-.073.05a34.96 34.96 0 00-6.794 6.283c-.917 1.115-4.166 6.347-5.299 10.631-.23.873-.472 2.014-.522 2.312l-.087.561a37.544 37.544 0 00-.308 2.741c-.013.161-.007.307.015.44a100.407 100.407 0 0010.801-10.305c.62-.687 1.229-1.391 1.84-2.093a60.565 60.565 0 011.589-1.794c1.353-1.483 2.757-2.87 4.327-3.953.282-.191.131-.086.089-.055-1.594 1.151-3.037 2.518-4.416 4.008-.534.588-1.062 1.189-1.589 1.794-2.599 3.041-5.086 6.408-8.091 9.425a85.157 85.157 0 01-4.046 3.807zm-160.101-.797a.548.548 0 00.1-.015c6.789-8.575 10.901-19.915 12.066-31.593 1.217-12.192-.323-24.919-5.009-36.17-3.492-8.386-8.727-15.804-14.438-22.336 0 0-.162-.426-.238-.086-2.284 10.202-5.422 20.122-9.752 29.369-1.183 2.526-2.217 5.139-2.956 7.916-1.31 4.93-1.658 10.234-1.357 15.355.002.014.186 2.454.527 4.631a56.89 56.89 0 002.96 11.203l.064.168c2.797 6.941 6.94 13.133 12.342 17.753a33.622 33.622 0 004.085 2.973c-.132-12.977 1.818-26.077 1.951-38.307.096-8.899-.57-17.925-3.096-26.354 0 0-.243-.767-.042-.155 6.904 21.178 2.223 45.439 2.793 65.648z" fill="#fff"/></svg>